<svg width="25" height="24" viewBox="0 0 25 24" fill="none" xmlns="http://www.w3.org/2000/svg">
<path d="M13.8035 7.41L16.2635 6.2C16.5635 6.05 16.6435 5.66 16.4135 5.42C15.5235 4.44 14.6235 3.62 13.9035 3C13.5735 2.72 13.0835 2.95 13.0835 3.38V6.96C13.0835 7.33 13.4735 7.57 13.8035 7.41Z" fill="white" style="fill:white;fill-opacity:1;"/>
<path d="M13.0835 19.74V21.39C13.0835 21.69 13.3535 21.94 13.6535 21.89C16.3835 21.44 18.6635 19.61 19.7435 17.15C19.9335 16.73 19.4735 16.31 19.0535 16.51L13.3635 19.3C13.1935 19.38 13.0835 19.55 13.0835 19.74Z" fill="white" style="fill:white;fill-opacity:1;"/>
<path d="M11.5835 3.36C11.5835 2.93 11.0935 2.7 10.7635 2.97C8.40347 4.95 4.21347 9.12 4.23347 13.9C4.23347 17.92 7.17347 21.25 11.0135 21.89C11.3135 21.94 11.5835 21.69 11.5835 21.39V3.36Z" fill="white" style="fill:white;fill-opacity:1;"/>
<path d="M13.7735 12.4699L19.0635 10.2499C19.3335 10.1299 19.4635 9.81995 19.3335 9.55995C18.9635 8.82995 18.5335 8.11995 18.0635 7.45995C17.9235 7.25995 17.6635 7.19995 17.4435 7.29995L13.3535 9.28995C13.1835 9.36995 13.0735 9.54994 13.0735 9.73994V12.0099C13.0835 12.3599 13.4435 12.6099 13.7735 12.4699Z" fill="white" style="fill:white;fill-opacity:1;"/>
<path d="M20.1635 14.31C20.3235 14.23 20.4235 14.08 20.4235 13.91C20.4235 13.27 20.3435 12.64 20.2035 12.02C20.1335 11.72 19.8035 11.56 19.5235 11.68L13.3835 14.3C13.2035 14.38 13.0835 14.56 13.0835 14.76V16.96C13.0835 17.33 13.4735 17.57 13.8035 17.41L19.7035 14.54L20.1635 14.31Z" fill="white" style="fill:white;fill-opacity:1;"/>
</svg>
