<svg width="25" height="24" viewBox="0 0 25 24" fill="none" xmlns="http://www.w3.org/2000/svg">
<path d="M7.98355 20.91C7.95355 20.91 7.91356 20.93 7.88355 20.93C5.94355 19.97 4.36355 18.38 3.39355 16.44C3.39355 16.41 3.41355 16.37 3.41355 16.34C4.63355 16.7 5.89355 16.97 7.14355 17.18C7.36355 18.44 7.62355 19.69 7.98355 20.91Z" fill="white" style="fill:white;fill-opacity:1;"/>
<path d="M21.2735 16.45C20.2835 18.44 18.6335 20.05 16.6235 21.02C17.0035 19.75 17.3235 18.47 17.5335 17.18C18.7935 16.97 20.0335 16.7 21.2535 16.34C21.2435 16.38 21.2735 16.42 21.2735 16.45Z" fill="white" style="fill:white;fill-opacity:1;"/>
<path d="M21.3535 7.70998C20.0935 7.32998 18.8235 7.01998 17.5335 6.79998C17.3235 5.50998 17.0135 4.22998 16.6235 2.97998C18.6935 3.96998 20.3635 5.63998 21.3535 7.70998Z" fill="white" style="fill:white;fill-opacity:1;"/>
<path d="M7.98348 3.09C7.62348 4.31 7.36348 5.55 7.15348 6.81C5.86348 7.01 4.58348 7.33 3.31348 7.71C4.28348 5.7 5.89348 4.05 7.88348 3.06C7.91348 3.06 7.95348 3.09 7.98348 3.09Z" fill="white" style="fill:white;fill-opacity:1;"/>
<path d="M15.8235 6.59C13.5035 6.33 11.1635 6.33 8.84351 6.59C9.09351 5.22 9.41351 3.85 9.86351 2.53C9.88351 2.45 9.87351 2.39 9.88351 2.31C10.6735 2.12 11.4835 2 12.3335 2C13.1735 2 13.9935 2.12 14.7735 2.31C14.7835 2.39 14.7835 2.45 14.8035 2.53C15.2535 3.86 15.5735 5.22 15.8235 6.59Z" fill="white" style="fill:white;fill-opacity:1;"/>
<path d="M6.9235 15.49C5.5435 15.24 4.1835 14.92 2.8635 14.47C2.7835 14.45 2.7235 14.46 2.6435 14.45C2.4535 13.66 2.3335 12.85 2.3335 12C2.3335 11.16 2.4535 10.34 2.6435 9.56001C2.7235 9.55001 2.7835 9.55001 2.8635 9.53001C4.1935 9.09001 5.5435 8.76001 6.9235 8.51001C6.6735 10.83 6.6735 13.17 6.9235 15.49Z" fill="white" style="fill:white;fill-opacity:1;"/>
<path d="M22.3334 12C22.3334 12.85 22.2134 13.66 22.0234 14.45C21.9434 14.46 21.8834 14.45 21.8034 14.47C20.4734 14.91 19.1134 15.24 17.7434 15.49C18.0034 13.17 18.0034 10.83 17.7434 8.51001C19.1134 8.76001 20.4834 9.08001 21.8034 9.53001C21.8834 9.55001 21.9434 9.56001 22.0234 9.56001C22.2134 10.35 22.3334 11.16 22.3334 12Z" fill="white" style="fill:white;fill-opacity:1;"/>
<path d="M15.8235 17.41C15.5735 18.79 15.2535 20.15 14.8035 21.47C14.7835 21.55 14.7835 21.61 14.7735 21.69C13.9935 21.88 13.1735 22 12.3335 22C11.4835 22 10.6735 21.88 9.88351 21.69C9.87351 21.61 9.88351 21.55 9.86351 21.47C9.42351 20.14 9.09351 18.79 8.84351 17.41C10.0035 17.54 11.1635 17.63 12.3335 17.63C13.5035 17.63 14.6735 17.54 15.8235 17.41Z" fill="white" style="fill:white;fill-opacity:1;"/>
<path d="M16.0968 15.7633C13.5957 16.0789 11.0713 16.0789 8.57017 15.7633C8.25461 13.2622 8.25461 10.7378 8.57017 8.23667C11.0713 7.92111 13.5957 7.92111 16.0968 8.23667C16.4124 10.7378 16.4124 13.2622 16.0968 15.7633Z" fill="white" style="fill:white;fill-opacity:1;"/>
</svg>
