<svg width="25" height="24" viewBox="0 0 25 24" fill="none" xmlns="http://www.w3.org/2000/svg">
<path d="M22.6666 12.86C22.6666 15.15 21.4866 17.18 19.6666 18.46L18.3266 21.41C18.0166 22.08 17.1166 22.21 16.6466 21.64L15.1666 19.86C13.3066 19.86 11.5966 19.23 10.2966 18.18L10.8966 17.47C15.5166 17.12 19.1666 13.46 19.1666 9.00002C19.1666 8.24002 19.0566 7.49002 18.8566 6.77002C21.1266 7.97002 22.6666 10.25 22.6666 12.86Z" fill="white" style="fill:white;fill-opacity:1;"/>
<path d="M16.9667 6.07C15.7967 3.67 13.1867 2 10.1667 2C6.02675 2 2.66675 5.13 2.66675 9C2.66675 11.29 3.84675 13.32 5.66675 14.6L7.00675 17.55C7.31675 18.22 8.21675 18.34 8.68675 17.78L9.23675 17.12L10.1667 16C14.3067 16 17.6667 12.87 17.6667 9C17.6667 7.95 17.4167 6.96 16.9667 6.07ZM12.6667 9.75H7.66675C7.25675 9.75 6.91675 9.41 6.91675 9C6.91675 8.59 7.25675 8.25 7.66675 8.25H12.6667C13.0767 8.25 13.4167 8.59 13.4167 9C13.4167 9.41 13.0767 9.75 12.6667 9.75Z" fill="white" style="fill:white;fill-opacity:1;"/>
</svg>
