<svg width="961" height="200" viewBox="0 0 961 200" fill="none" xmlns="http://www.w3.org/2000/svg">
<line opacity="0.1" x1="16.5" y1="2.18557e-08" x2="16.5" y2="200" stroke="white" style="stroke:white;stroke-opacity:1;"/>
<line opacity="0.1" x1="32.5" y1="2.18557e-08" x2="32.5" y2="200" stroke="white" style="stroke:white;stroke-opacity:1;"/>
<line opacity="0.1" x1="48.5" y1="2.18557e-08" x2="48.5" y2="200" stroke="white" style="stroke:white;stroke-opacity:1;"/>
<line opacity="0.1" x1="64.5" y1="2.18557e-08" x2="64.5" y2="200" stroke="white" style="stroke:white;stroke-opacity:1;"/>
<line opacity="0.1" x1="80.5" y1="2.18557e-08" x2="80.5" y2="200" stroke="white" style="stroke:white;stroke-opacity:1;"/>
<line opacity="0.1" x1="96.5" y1="2.18557e-08" x2="96.5" y2="200" stroke="white" style="stroke:white;stroke-opacity:1;"/>
<line opacity="0.1" x1="112.5" y1="2.18557e-08" x2="112.5" y2="200" stroke="white" style="stroke:white;stroke-opacity:1;"/>
<line opacity="0.1" x1="128.5" y1="2.18557e-08" x2="128.5" y2="200" stroke="white" style="stroke:white;stroke-opacity:1;"/>
<line opacity="0.1" x1="144.5" y1="2.18557e-08" x2="144.5" y2="200" stroke="white" style="stroke:white;stroke-opacity:1;"/>
<line opacity="0.1" x1="160.5" y1="2.18557e-08" x2="160.5" y2="200" stroke="white" style="stroke:white;stroke-opacity:1;"/>
<line opacity="0.1" x1="176.5" y1="2.18557e-08" x2="176.5" y2="200" stroke="white" style="stroke:white;stroke-opacity:1;"/>
<line opacity="0.1" x1="192.5" y1="2.18557e-08" x2="192.5" y2="200" stroke="white" style="stroke:white;stroke-opacity:1;"/>
<line opacity="0.1" x1="208.5" y1="2.18557e-08" x2="208.5" y2="200" stroke="white" style="stroke:white;stroke-opacity:1;"/>
<line opacity="0.1" x1="224.5" y1="2.18557e-08" x2="224.5" y2="200" stroke="white" style="stroke:white;stroke-opacity:1;"/>
<line opacity="0.1" x1="240.5" y1="2.18557e-08" x2="240.5" y2="200" stroke="white" style="stroke:white;stroke-opacity:1;"/>
<line opacity="0.1" x1="256.5" y1="2.18557e-08" x2="256.5" y2="200" stroke="white" style="stroke:white;stroke-opacity:1;"/>
<line opacity="0.1" x1="272.5" y1="2.18557e-08" x2="272.5" y2="200" stroke="white" style="stroke:white;stroke-opacity:1;"/>
<line opacity="0.1" x1="288.5" y1="2.18557e-08" x2="288.5" y2="200" stroke="white" style="stroke:white;stroke-opacity:1;"/>
<line opacity="0.1" x1="304.5" y1="2.18557e-08" x2="304.5" y2="200" stroke="white" style="stroke:white;stroke-opacity:1;"/>
<line opacity="0.1" x1="320.5" y1="2.18557e-08" x2="320.5" y2="200" stroke="white" style="stroke:white;stroke-opacity:1;"/>
<line opacity="0.1" x1="336.5" y1="2.18557e-08" x2="336.5" y2="200" stroke="white" style="stroke:white;stroke-opacity:1;"/>
<line opacity="0.1" x1="352.5" y1="2.18557e-08" x2="352.5" y2="200" stroke="white" style="stroke:white;stroke-opacity:1;"/>
<line opacity="0.1" x1="368.5" y1="2.18557e-08" x2="368.5" y2="200" stroke="white" style="stroke:white;stroke-opacity:1;"/>
<line opacity="0.1" x1="384.5" y1="2.18557e-08" x2="384.5" y2="200" stroke="white" style="stroke:white;stroke-opacity:1;"/>
<line opacity="0.1" x1="400.5" y1="2.18557e-08" x2="400.5" y2="200" stroke="white" style="stroke:white;stroke-opacity:1;"/>
<line opacity="0.1" x1="416.5" y1="2.18557e-08" x2="416.5" y2="200" stroke="white" style="stroke:white;stroke-opacity:1;"/>
<line opacity="0.1" x1="432.5" y1="2.18557e-08" x2="432.5" y2="200" stroke="white" style="stroke:white;stroke-opacity:1;"/>
<line opacity="0.1" x1="448.5" y1="2.18557e-08" x2="448.5" y2="200" stroke="white" style="stroke:white;stroke-opacity:1;"/>
<line opacity="0.1" x1="464.5" y1="2.18557e-08" x2="464.5" y2="200" stroke="white" style="stroke:white;stroke-opacity:1;"/>
<line opacity="0.1" x1="480.5" y1="2.18557e-08" x2="480.5" y2="200" stroke="white" style="stroke:white;stroke-opacity:1;"/>
<line opacity="0.1" x1="496.5" y1="2.18557e-08" x2="496.5" y2="200" stroke="white" style="stroke:white;stroke-opacity:1;"/>
<line opacity="0.1" x1="512.5" y1="2.18557e-08" x2="512.5" y2="200" stroke="white" style="stroke:white;stroke-opacity:1;"/>
<line opacity="0.1" x1="528.5" y1="2.18557e-08" x2="528.5" y2="200" stroke="white" style="stroke:white;stroke-opacity:1;"/>
<line opacity="0.1" x1="544.5" y1="2.18557e-08" x2="544.5" y2="200" stroke="white" style="stroke:white;stroke-opacity:1;"/>
<line opacity="0.1" x1="560.5" y1="2.18557e-08" x2="560.5" y2="200" stroke="white" style="stroke:white;stroke-opacity:1;"/>
<line opacity="0.1" x1="576.5" y1="2.18557e-08" x2="576.5" y2="200" stroke="white" style="stroke:white;stroke-opacity:1;"/>
<line opacity="0.1" x1="592.5" y1="2.18557e-08" x2="592.5" y2="200" stroke="white" style="stroke:white;stroke-opacity:1;"/>
<line opacity="0.1" x1="608.5" y1="2.18557e-08" x2="608.5" y2="200" stroke="white" style="stroke:white;stroke-opacity:1;"/>
<line opacity="0.1" x1="624.5" y1="2.18557e-08" x2="624.5" y2="200" stroke="white" style="stroke:white;stroke-opacity:1;"/>
<line opacity="0.1" x1="640.5" y1="2.18557e-08" x2="640.5" y2="200" stroke="white" style="stroke:white;stroke-opacity:1;"/>
<line opacity="0.1" x1="656.5" y1="2.18557e-08" x2="656.5" y2="200" stroke="white" style="stroke:white;stroke-opacity:1;"/>
<line opacity="0.1" x1="672.5" y1="2.18557e-08" x2="672.5" y2="200" stroke="white" style="stroke:white;stroke-opacity:1;"/>
<line opacity="0.1" x1="688.5" y1="2.18557e-08" x2="688.5" y2="200" stroke="white" style="stroke:white;stroke-opacity:1;"/>
<line opacity="0.1" x1="704.5" y1="2.18557e-08" x2="704.5" y2="200" stroke="white" style="stroke:white;stroke-opacity:1;"/>
<line opacity="0.1" x1="720.5" y1="2.18557e-08" x2="720.5" y2="200" stroke="white" style="stroke:white;stroke-opacity:1;"/>
<line opacity="0.1" x1="736.5" y1="2.18557e-08" x2="736.5" y2="200" stroke="white" style="stroke:white;stroke-opacity:1;"/>
<line opacity="0.1" x1="752.5" y1="2.18557e-08" x2="752.5" y2="200" stroke="white" style="stroke:white;stroke-opacity:1;"/>
<line opacity="0.1" x1="768.5" y1="2.18557e-08" x2="768.5" y2="200" stroke="white" style="stroke:white;stroke-opacity:1;"/>
<line opacity="0.1" x1="784.5" y1="2.18557e-08" x2="784.5" y2="200" stroke="white" style="stroke:white;stroke-opacity:1;"/>
<line opacity="0.1" x1="800.5" y1="2.18557e-08" x2="800.5" y2="200" stroke="white" style="stroke:white;stroke-opacity:1;"/>
<line opacity="0.1" x1="816.5" y1="2.18557e-08" x2="816.5" y2="200" stroke="white" style="stroke:white;stroke-opacity:1;"/>
<line opacity="0.1" x1="832.5" y1="2.18557e-08" x2="832.5" y2="200" stroke="white" style="stroke:white;stroke-opacity:1;"/>
<line opacity="0.1" x1="848.5" y1="2.18557e-08" x2="848.5" y2="200" stroke="white" style="stroke:white;stroke-opacity:1;"/>
<line opacity="0.1" x1="864.5" y1="2.18557e-08" x2="864.5" y2="200" stroke="white" style="stroke:white;stroke-opacity:1;"/>
<line opacity="0.1" x1="880.5" y1="2.18557e-08" x2="880.5" y2="200" stroke="white" style="stroke:white;stroke-opacity:1;"/>
<line opacity="0.1" x1="896.5" y1="2.18557e-08" x2="896.5" y2="200" stroke="white" style="stroke:white;stroke-opacity:1;"/>
<line opacity="0.1" x1="912.5" y1="2.18557e-08" x2="912.5" y2="200" stroke="white" style="stroke:white;stroke-opacity:1;"/>
<line opacity="0.1" x1="928.5" y1="2.18557e-08" x2="928.5" y2="200" stroke="white" style="stroke:white;stroke-opacity:1;"/>
<line opacity="0.1" x1="944.5" y1="2.18557e-08" x2="944.5" y2="200" stroke="white" style="stroke:white;stroke-opacity:1;"/>
<line opacity="0.1" x1="960.5" y1="2.18557e-08" x2="960.5" y2="200" stroke="white" style="stroke:white;stroke-opacity:1;"/>
<rect x="0.5" y="0.5" width="31" height="31" rx="15.5" fill="#0A0A1F" style="fill:#0A0A1F;fill:color(display-p3 0.0402 0.0402 0.1206);fill-opacity:1;"/>
<rect x="0.5" y="0.5" width="31" height="31" rx="15.5" stroke="#6691FF" style="stroke:#6691FF;stroke:color(display-p3 0.4000 0.5680 1.0000);stroke-opacity:1;"/>
<circle cx="16" cy="16" r="12" fill="#0F0F2E" style="fill:#0F0F2E;fill:color(display-p3 0.0600 0.0600 0.1800);fill-opacity:1;"/>
<circle cx="16" cy="16" r="11.75" stroke="white" stroke-opacity="0.1" style="stroke:white;stroke-opacity:0.1;" stroke-width="0.5"/>
<path d="M15.773 20V13.224H13.225V11.656H13.645C14.975 11.656 15.787 10.956 15.885 9.906H17.831V20H15.773Z" fill="white" style="fill:white;fill-opacity:1;"/>
<path fill-rule="evenodd" clip-rule="evenodd" d="M61.7543 0C58.4406 0 55.7543 2.68629 55.7543 6V8.72569L48.7359 14.4502C47.7547 15.2504 47.7547 16.7496 48.7359 17.5498L55.7543 23.2743V26C55.7543 29.3137 58.4406 32 61.7543 32H242C245.314 32 248 29.3137 248 26V6C248 2.68629 245.314 0 242 0H61.7543Z" fill="white" style="fill:white;fill-opacity:1;"/>
<path d="M78.2082 21.144C74.7362 21.144 72.4162 18.904 72.4162 15.16C72.4162 11.432 74.7362 9.192 78.2082 9.192C81.1362 9.192 83.2482 10.824 83.5842 13.304H81.4242C81.1362 11.96 79.9202 11.016 78.2082 11.016C76.0002 11.016 74.6082 12.472 74.6082 15.16C74.6082 17.88 76.0002 19.32 78.2082 19.32C79.8882 19.32 81.1682 18.408 81.4242 17.016H83.5842C83.2802 19.512 81.1202 21.144 78.2082 21.144ZM88.2297 21.144C86.1817 21.144 84.8057 19.624 84.8057 16.744C84.8057 13.848 86.1817 12.328 88.2297 12.328C89.6057 12.328 90.6297 13.016 91.0457 14.056H91.1577L91.2377 12.488H93.1577V21H91.1577V19.416H91.0457C90.6297 20.456 89.6057 21.144 88.2297 21.144ZM88.9817 19.512C90.4057 19.512 91.1257 18.376 91.1257 17.176V16.296C91.1257 15.08 90.4057 13.96 88.9817 13.96C87.7017 13.96 86.8377 14.872 86.8377 16.744C86.8377 18.6 87.7017 19.512 88.9817 19.512ZM95.3025 21V12.488H97.2225L97.3025 14.104H97.3985C97.8785 12.936 98.9665 12.328 100.198 12.328C101.926 12.328 103.222 13.32 103.222 15.896V21H101.222V16.328C101.222 14.728 100.678 13.976 99.4305 13.976C98.0865 13.976 97.3025 15.032 97.3025 16.312V21H95.3025ZM108.183 21.144C106.135 21.144 104.759 19.624 104.759 16.744C104.759 13.848 106.135 12.328 108.183 12.328C109.559 12.328 110.583 13.016 110.999 14.056H111.111V9.336H113.111L113.095 21H111.175L111.111 19.416H110.999C110.583 20.456 109.559 21.144 108.183 21.144ZM108.935 19.512C110.359 19.512 111.079 18.376 111.079 17.176V16.296C111.079 15.08 110.359 13.96 108.935 13.96C107.655 13.96 106.791 14.872 106.791 16.744C106.791 18.6 107.655 19.512 108.935 19.512ZM115.256 11.288V9.336H117.256V11.288H115.256ZM115.256 21V12.488H117.256V21H115.256ZM122.308 21.144C120.26 21.144 118.884 19.624 118.884 16.744C118.884 13.848 120.26 12.328 122.308 12.328C123.684 12.328 124.708 13.016 125.124 14.056H125.236V9.336H127.236L127.22 21H125.3L125.236 19.416H125.124C124.708 20.456 123.684 21.144 122.308 21.144ZM123.06 19.512C124.484 19.512 125.204 18.376 125.204 17.176V16.296C125.204 15.08 124.484 13.96 123.06 13.96C121.78 13.96 120.916 14.872 120.916 16.744C120.916 18.6 121.78 19.512 123.06 19.512ZM132.277 21.144C130.229 21.144 128.853 19.624 128.853 16.744C128.853 13.848 130.229 12.328 132.277 12.328C133.653 12.328 134.677 13.016 135.093 14.056H135.205L135.285 12.488H137.205V21H135.205V19.416H135.093C134.677 20.456 133.653 21.144 132.277 21.144ZM133.029 19.512C134.453 19.512 135.173 18.376 135.173 17.176V16.296C135.173 15.08 134.453 13.96 133.029 13.96C131.749 13.96 130.885 14.872 130.885 16.744C130.885 18.6 131.749 19.512 133.029 19.512ZM141.989 21C140.405 21 139.973 20.28 139.973 19.064V14.104H138.405V12.488H139.973V10.088L141.957 9.88V12.488H143.765V14.104H141.957V18.696C141.957 19.24 142.181 19.368 142.677 19.368H143.765V21H141.989ZM148.716 21.144C146.108 21.144 144.54 19.416 144.54 16.792C144.54 14.072 146.14 12.328 148.636 12.328C151.532 12.328 152.908 14.408 152.62 17.176H146.508C146.508 18.728 147.388 19.608 148.716 19.608C149.74 19.608 150.492 19.112 150.684 18.344H152.588C152.348 20.024 150.796 21.144 148.716 21.144ZM148.636 13.864C147.436 13.864 146.652 14.616 146.524 15.832H150.668C150.604 14.488 149.756 13.864 148.636 13.864ZM161.068 21.16C158.652 21.16 157.292 20.024 157.308 18.328H159.276C159.292 19.352 160.06 19.784 161.116 19.784C162.204 19.784 162.78 19.384 162.78 18.696C162.78 17.832 162.204 17.672 160.876 17.48C158.956 17.208 157.532 16.76 157.532 14.952C157.532 13.24 158.972 12.328 161.116 12.328C163.26 12.328 164.588 13.32 164.62 15H162.668C162.652 14.136 162.028 13.704 161.068 13.704C160.06 13.704 159.532 14.12 159.532 14.744C159.532 15.48 160.14 15.72 161.484 15.896C163.26 16.136 164.796 16.504 164.796 18.504C164.796 20.312 163.372 21.16 161.068 21.16ZM170.216 21.144C167.688 21.144 166.04 19.4 166.04 16.744C166.04 14.088 167.704 12.328 170.28 12.328C172.424 12.328 173.96 13.624 174.072 15.496H172.12C171.944 14.504 171.192 13.976 170.232 13.976C168.824 13.976 168.056 15.08 168.056 16.744C168.056 18.552 168.92 19.496 170.216 19.496C171.32 19.496 172.04 18.856 172.152 17.912H174.104C173.976 19.88 172.392 21.144 170.216 21.144ZM175.662 21V12.488H177.47L177.566 13.912H177.63C178.014 12.824 178.942 12.376 180.046 12.376H180.542V14.264C180.414 14.264 180.222 14.248 180.014 14.248C178.462 14.248 177.726 15.016 177.662 16.344V21H175.662ZM185.294 21.144C182.686 21.144 181.118 19.416 181.118 16.792C181.118 14.072 182.718 12.328 185.214 12.328C188.11 12.328 189.486 14.408 189.198 17.176H183.086C183.086 18.728 183.966 19.608 185.294 19.608C186.318 19.608 187.07 19.112 187.262 18.344H189.166C188.926 20.024 187.374 21.144 185.294 21.144ZM185.214 13.864C184.014 13.864 183.23 14.616 183.102 15.832H187.246C187.182 14.488 186.334 13.864 185.214 13.864ZM194.654 21.144C192.046 21.144 190.478 19.416 190.478 16.792C190.478 14.072 192.078 12.328 194.574 12.328C197.47 12.328 198.846 14.408 198.558 17.176H192.446C192.446 18.728 193.326 19.608 194.654 19.608C195.678 19.608 196.43 19.112 196.622 18.344H198.526C198.286 20.024 196.734 21.144 194.654 21.144ZM194.574 13.864C193.374 13.864 192.59 14.616 192.462 15.832H196.606C196.542 14.488 195.694 13.864 194.574 13.864ZM200.209 21V12.488H202.129L202.209 14.104H202.305C202.785 12.936 203.873 12.328 205.105 12.328C206.833 12.328 208.129 13.32 208.129 15.896V21H206.129V16.328C206.129 14.728 205.585 13.976 204.337 13.976C202.993 13.976 202.209 15.032 202.209 16.312V21H200.209ZM210.193 11.288V9.336H212.193V11.288H210.193ZM210.193 21V12.488H212.193V21H210.193ZM214.349 21V12.488H216.269L216.349 14.104H216.445C216.925 12.936 218.013 12.328 219.245 12.328C220.973 12.328 222.269 13.32 222.269 15.896V21H220.269V16.328C220.269 14.728 219.725 13.976 218.477 13.976C217.133 13.976 216.349 15.032 216.349 16.312V21H214.349ZM227.806 23.832C225.662 23.832 224.334 22.856 224.19 21.32H226.11C226.238 21.976 226.878 22.392 227.854 22.392C229.294 22.392 229.982 21.8 229.982 20.424V18.856H229.87C229.486 19.848 228.478 20.504 227.182 20.504C225.134 20.504 223.806 19.064 223.806 16.408C223.806 13.768 225.166 12.328 227.214 12.328C228.494 12.328 229.486 12.968 229.87 13.944H229.982L230.046 12.488H231.982V20.104C231.982 22.856 230.302 23.832 227.806 23.832ZM227.902 18.952C229.246 18.952 229.95 17.944 229.982 16.92V15.896C229.934 14.888 229.246 13.88 227.918 13.88C226.654 13.88 225.838 14.76 225.838 16.408C225.838 18.088 226.67 18.952 227.902 18.952Z" fill="#0A0A1F" style="fill:#0A0A1F;fill:color(display-p3 0.0402 0.0402 0.1206);fill-opacity:1;"/>
<rect x="260.5" y="56.5" width="31" height="31" rx="15.5" fill="#0A0A1F" style="fill:#0A0A1F;fill:color(display-p3 0.0402 0.0402 0.1206);fill-opacity:1;"/>
<rect x="260.5" y="56.5" width="31" height="31" rx="15.5" stroke="#6691FF" style="stroke:#6691FF;stroke:color(display-p3 0.4000 0.5680 1.0000);stroke-opacity:1;"/>
<circle cx="276" cy="72" r="12" fill="#0F0F2E" style="fill:#0F0F2E;fill:color(display-p3 0.0600 0.0600 0.1800);fill-opacity:1;"/>
<circle cx="276" cy="72" r="11.75" stroke="white" stroke-opacity="0.1" style="stroke:white;stroke-opacity:0.1;" stroke-width="0.5"/>
<path d="M272.404 76V75.706C272.404 71.534 277.332 71.128 277.332 68.902C277.332 68.062 276.758 67.544 275.904 67.544C274.994 67.544 274.392 68.132 274.476 69.196H272.432C272.376 67.124 273.832 65.78 276.03 65.78C278.088 65.78 279.46 66.928 279.46 68.804C279.46 71.772 275.806 72.5 275.022 74.194H279.558V76H272.404Z" fill="white" style="fill:white;fill-opacity:1;"/>
<path fill-rule="evenodd" clip-rule="evenodd" d="M321.826 56C318.513 56 315.826 58.6863 315.826 62V64.7245L308.744 70.444C307.752 71.2445 307.752 72.7555 308.744 73.556L315.826 79.2755V82C315.826 85.3137 318.513 88 321.826 88H490.003C493.317 88 496.003 85.3137 496.003 82V62C496.003 58.6863 493.317 56 490.003 56H321.826Z" fill="white" style="fill:white;fill-opacity:1;"/>
<path d="M335.514 77V67.176H331.962V65.336H341.242V67.176H337.626V77H335.514ZM344.491 77.144C341.883 77.144 340.315 75.416 340.315 72.792C340.315 70.072 341.915 68.328 344.411 68.328C347.307 68.328 348.683 70.408 348.395 73.176H342.283C342.283 74.728 343.163 75.608 344.491 75.608C345.515 75.608 346.267 75.112 346.459 74.344H348.363C348.123 76.024 346.571 77.144 344.491 77.144ZM344.411 69.864C343.211 69.864 342.427 70.616 342.299 71.832H346.443C346.379 70.488 345.531 69.864 344.411 69.864ZM353.85 77.144C351.322 77.144 349.674 75.4 349.674 72.744C349.674 70.088 351.338 68.328 353.914 68.328C356.058 68.328 357.594 69.624 357.706 71.496H355.754C355.578 70.504 354.826 69.976 353.866 69.976C352.458 69.976 351.69 71.08 351.69 72.744C351.69 74.552 352.554 75.496 353.85 75.496C354.954 75.496 355.674 74.856 355.786 73.912H357.738C357.61 75.88 356.026 77.144 353.85 77.144ZM359.296 77V65.336H361.296V70.104H361.392C361.872 68.936 362.96 68.328 364.192 68.328C365.92 68.328 367.216 69.32 367.216 71.896V77H365.216V72.328C365.216 70.728 364.672 69.976 363.424 69.976C362.08 69.976 361.296 71.032 361.296 72.312V77H359.296ZM369.28 77V68.488H371.2L371.28 70.104H371.376C371.856 68.936 372.944 68.328 374.176 68.328C375.904 68.328 377.2 69.32 377.2 71.896V77H375.2V72.328C375.2 70.728 374.656 69.976 373.408 69.976C372.064 69.976 371.28 71.032 371.28 72.312V77H369.28ZM379.265 67.288V65.336H381.265V67.288H379.265ZM379.265 77V68.488H381.265V77H379.265ZM387.069 77.144C384.541 77.144 382.893 75.4 382.893 72.744C382.893 70.088 384.557 68.328 387.133 68.328C389.277 68.328 390.813 69.624 390.925 71.496H388.973C388.797 70.504 388.045 69.976 387.085 69.976C385.677 69.976 384.909 71.08 384.909 72.744C384.909 74.552 385.773 75.496 387.069 75.496C388.173 75.496 388.893 74.856 389.005 73.912H390.957C390.829 75.88 389.245 77.144 387.069 77.144ZM395.411 77.144C393.363 77.144 391.987 75.624 391.987 72.744C391.987 69.848 393.363 68.328 395.411 68.328C396.787 68.328 397.811 69.016 398.227 70.056H398.339L398.419 68.488H400.339V77H398.339V75.416H398.227C397.811 76.456 396.787 77.144 395.411 77.144ZM396.163 75.512C397.587 75.512 398.307 74.376 398.307 73.176V72.296C398.307 71.08 397.587 69.96 396.163 69.96C394.883 69.96 394.019 70.872 394.019 72.744C394.019 74.6 394.883 75.512 396.163 75.512ZM402.483 77V65.336H404.483V77H402.483ZM410.124 67.288V65.336H412.124V67.288H410.124ZM410.124 77V68.488H412.124V77H410.124ZM414.28 77V68.488H416.2L416.28 70.104H416.376C416.856 68.936 417.944 68.328 419.176 68.328C420.904 68.328 422.2 69.32 422.2 71.896V77H420.2V72.328C420.2 70.728 419.656 69.976 418.408 69.976C417.064 69.976 416.28 71.032 416.28 72.312V77H414.28ZM426.686 77C425.102 77 424.67 76.28 424.67 75.064V70.104H423.102V68.488H424.67V66.088L426.654 65.88V68.488H428.462V70.104H426.654V74.696C426.654 75.24 426.878 75.368 427.374 75.368H428.462V77H426.686ZM433.413 77.144C430.805 77.144 429.237 75.416 429.237 72.792C429.237 70.072 430.837 68.328 433.333 68.328C436.229 68.328 437.605 70.408 437.317 73.176H431.205C431.205 74.728 432.085 75.608 433.413 75.608C434.437 75.608 435.189 75.112 435.381 74.344H437.285C437.045 76.024 435.493 77.144 433.413 77.144ZM433.333 69.864C432.133 69.864 431.349 70.616 431.221 71.832H435.365C435.301 70.488 434.453 69.864 433.333 69.864ZM438.968 77V68.488H440.776L440.872 69.912H440.936C441.32 68.824 442.248 68.376 443.352 68.376H443.848V70.264C443.72 70.264 443.528 70.248 443.32 70.248C441.768 70.248 441.032 71.016 440.968 72.344V77H438.968ZM447.027 77L444.051 68.472H446.211L447.699 73.368L448.227 75.32H448.291L448.819 73.384L450.307 68.472H452.467L449.507 77H447.027ZM453.515 67.288V65.336H455.515V67.288H453.515ZM453.515 77V68.488H455.515V77H453.515ZM461.319 77.144C458.711 77.144 457.143 75.416 457.143 72.792C457.143 70.072 458.743 68.328 461.239 68.328C464.135 68.328 465.511 70.408 465.223 73.176H459.111C459.111 74.728 459.991 75.608 461.319 75.608C462.343 75.608 463.095 75.112 463.287 74.344H465.191C464.951 76.024 463.399 77.144 461.319 77.144ZM461.239 69.864C460.039 69.864 459.255 70.616 459.127 71.832H463.271C463.207 70.488 462.359 69.864 461.239 69.864ZM467.838 77L465.742 68.488H467.79L469.294 75H469.374L470.782 68.488H472.974L474.382 75.016H474.446L475.934 68.488H477.918L475.806 77H473.198L471.822 71.032H471.742L470.414 77H467.838Z" fill="#0A0A1F" style="fill:#0A0A1F;fill:color(display-p3 0.0402 0.0402 0.1206);fill-opacity:1;"/>
<rect x="520.5" y="112.5" width="31" height="31" rx="15.5" fill="#0A0A1F" style="fill:#0A0A1F;fill:color(display-p3 0.0402 0.0402 0.1206);fill-opacity:1;"/>
<rect x="520.5" y="112.5" width="31" height="31" rx="15.5" stroke="#6691FF" style="stroke:#6691FF;stroke:color(display-p3 0.4000 0.5680 1.0000);stroke-opacity:1;"/>
<circle cx="536" cy="128" r="12" fill="#0F0F2E" style="fill:#0F0F2E;fill:color(display-p3 0.0600 0.0600 0.1800);fill-opacity:1;"/>
<circle cx="536" cy="128" r="11.75" stroke="white" stroke-opacity="0.1" style="stroke:white;stroke-opacity:0.1;" stroke-width="0.5"/>
<path d="M535.858 132.126C533.562 132.126 532.218 130.824 532.162 128.864H534.206C534.206 129.774 534.864 130.376 535.858 130.376C536.852 130.376 537.496 129.816 537.496 128.92C537.496 128.066 536.908 127.618 536.068 127.618H534.808V126.078H535.9C536.838 126.078 537.342 125.532 537.342 124.79C537.342 123.992 536.768 123.53 535.872 123.53C534.906 123.53 534.318 124.104 534.304 125H532.246C532.288 123.04 533.73 121.78 535.97 121.78C538.056 121.78 539.442 122.844 539.442 124.496C539.442 125.574 538.868 126.414 538 126.736V126.82C539.022 127.086 539.596 127.982 539.596 129.116C539.596 130.922 538.07 132.126 535.858 132.126Z" fill="white" style="fill:white;fill-opacity:1;"/>
<path fill-rule="evenodd" clip-rule="evenodd" d="M582.78 112C579.466 112 576.78 114.686 576.78 118V119.917L568.739 126.448C567.754 127.248 567.754 128.752 568.739 129.552L576.78 136.083V138C576.78 141.314 579.466 144 582.78 144H732.004C735.317 144 738.004 141.314 738.004 138V118C738.004 114.686 735.317 112 732.004 112H582.78Z" fill="white" style="fill:white;fill-opacity:1;"/>
<path d="M594.166 133V121.336H596.726L602.198 130.12H602.294L602.214 126.312V121.336H604.246V133H601.814L596.358 124.36H596.246L596.31 127.848V133H594.166ZM610.308 133.144C607.7 133.144 606.132 131.416 606.132 128.792C606.132 126.072 607.732 124.328 610.228 124.328C613.124 124.328 614.5 126.408 614.212 129.176H608.1C608.1 130.728 608.98 131.608 610.308 131.608C611.332 131.608 612.084 131.112 612.276 130.344H614.18C613.94 132.024 612.388 133.144 610.308 133.144ZM610.228 125.864C609.028 125.864 608.244 126.616 608.116 127.832H612.26C612.196 126.488 611.348 125.864 610.228 125.864ZM619.491 135.832C617.347 135.832 616.019 134.856 615.875 133.32H617.795C617.923 133.976 618.563 134.392 619.539 134.392C620.979 134.392 621.667 133.8 621.667 132.424V130.856H621.555C621.171 131.848 620.163 132.504 618.867 132.504C616.819 132.504 615.491 131.064 615.491 128.408C615.491 125.768 616.851 124.328 618.899 124.328C620.179 124.328 621.171 124.968 621.555 125.944H621.667L621.731 124.488H623.667V132.104C623.667 134.856 621.987 135.832 619.491 135.832ZM619.587 130.952C620.931 130.952 621.635 129.944 621.667 128.92V127.896C621.619 126.888 620.931 125.88 619.603 125.88C618.339 125.88 617.523 126.76 617.523 128.408C617.523 130.088 618.355 130.952 619.587 130.952ZM629.34 133.144C626.812 133.144 625.116 131.48 625.116 128.744C625.116 126.12 626.7 124.328 629.34 124.328C631.852 124.328 633.532 126.008 633.532 128.744C633.532 131.368 631.964 133.144 629.34 133.144ZM629.324 131.496C630.636 131.496 631.516 130.568 631.516 128.744C631.516 126.936 630.668 125.976 629.34 125.976C628.012 125.976 627.132 126.92 627.132 128.744C627.132 130.536 627.98 131.496 629.324 131.496ZM637.784 133C636.2 133 635.768 132.28 635.768 131.064V126.104H634.2V124.488H635.768V122.088L637.752 121.88V124.488H639.56V126.104H637.752V130.696C637.752 131.24 637.976 131.368 638.472 131.368H639.56V133H637.784ZM641.097 123.288V121.336H643.097V123.288H641.097ZM641.097 133V124.488H643.097V133H641.097ZM648.149 133.144C646.101 133.144 644.725 131.624 644.725 128.744C644.725 125.848 646.101 124.328 648.149 124.328C649.525 124.328 650.549 125.016 650.965 126.056H651.077L651.157 124.488H653.077V133H651.077V131.416H650.965C650.549 132.456 649.525 133.144 648.149 133.144ZM648.901 131.512C650.325 131.512 651.045 130.376 651.045 129.176V128.296C651.045 127.08 650.325 125.96 648.901 125.96C647.621 125.96 646.757 126.872 646.757 128.744C646.757 130.6 647.621 131.512 648.901 131.512ZM657.862 133C656.278 133 655.846 132.28 655.846 131.064V126.104H654.278V124.488H655.846V122.088L657.83 121.88V124.488H659.638V126.104H657.83V130.696C657.83 131.24 658.054 131.368 658.55 131.368H659.638V133H657.862ZM661.175 123.288V121.336H663.175V123.288H661.175ZM661.175 133V124.488H663.175V133H661.175ZM669.027 133.144C666.499 133.144 664.803 131.48 664.803 128.744C664.803 126.12 666.387 124.328 669.027 124.328C671.539 124.328 673.219 126.008 673.219 128.744C673.219 131.368 671.651 133.144 669.027 133.144ZM669.011 131.496C670.323 131.496 671.203 130.568 671.203 128.744C671.203 126.936 670.355 125.976 669.027 125.976C667.699 125.976 666.819 126.92 666.819 128.744C666.819 130.536 667.667 131.496 669.011 131.496ZM674.831 133V124.488H676.751L676.831 126.104H676.927C677.407 124.936 678.495 124.328 679.727 124.328C681.455 124.328 682.751 125.32 682.751 127.896V133H680.751V128.328C680.751 126.728 680.207 125.976 678.959 125.976C677.615 125.976 676.831 127.032 676.831 128.312V133H674.831ZM691.996 133.144C689.468 133.144 687.772 131.48 687.772 128.744C687.772 126.12 689.356 124.328 691.996 124.328C694.508 124.328 696.188 126.008 696.188 128.744C696.188 131.368 694.62 133.144 691.996 133.144ZM691.98 131.496C693.292 131.496 694.172 130.568 694.172 128.744C694.172 126.936 693.324 125.976 691.996 125.976C690.668 125.976 689.788 126.92 689.788 128.744C689.788 130.536 690.636 131.496 691.98 131.496ZM698.376 133V126.104H696.904V124.488H698.376V123.4C698.376 122.056 699.24 121.336 700.712 121.336H702.344V122.696H701.272C700.568 122.696 700.376 123.032 700.376 123.512V124.488H703.368V123.4C703.368 122.056 704.248 121.336 705.72 121.336H707.336V122.696H706.28C705.576 122.696 705.368 123.032 705.368 123.512V124.488H707.176V126.104H705.368V133H703.368V126.104H700.376V133H698.376ZM711.823 133.144C709.215 133.144 707.647 131.416 707.647 128.792C707.647 126.072 709.247 124.328 711.743 124.328C714.639 124.328 716.015 126.408 715.727 129.176H709.615C709.615 130.728 710.495 131.608 711.823 131.608C712.847 131.608 713.599 131.112 713.791 130.344H715.695C715.455 132.024 713.903 133.144 711.823 133.144ZM711.743 125.864C710.543 125.864 709.759 126.616 709.631 127.832H713.775C713.711 126.488 712.863 125.864 711.743 125.864ZM717.378 133V124.488H719.186L719.282 125.912H719.346C719.73 124.824 720.658 124.376 721.762 124.376H722.258V126.264C722.13 126.264 721.938 126.248 721.73 126.248C720.178 126.248 719.442 127.016 719.378 128.344V133H717.378Z" fill="#0A0A1F" style="fill:#0A0A1F;fill:color(display-p3 0.0402 0.0402 0.1206);fill-opacity:1;"/>
<rect x="780.5" y="168.5" width="31" height="31" rx="15.5" fill="#0A0A1F" style="fill:#0A0A1F;fill:color(display-p3 0.0402 0.0402 0.1206);fill-opacity:1;"/>
<rect x="780.5" y="168.5" width="31" height="31" rx="15.5" stroke="#6691FF" style="stroke:#6691FF;stroke:color(display-p3 0.4000 0.5680 1.0000);stroke-opacity:1;"/>
<circle cx="796" cy="184" r="12" fill="#0F0F2E" style="fill:#0F0F2E;fill:color(display-p3 0.0600 0.0600 0.1800);fill-opacity:1;"/>
<circle cx="796" cy="184" r="11.75" stroke="white" stroke-opacity="0.1" style="stroke:white;stroke-opacity:0.1;" stroke-width="0.5"/>
<path d="M796.663 188L796.649 185.69H791.931V184.15L796.159 177.906H798.721V184.01H800.037L800.023 185.69H798.721V188H796.663ZM793.975 184.01H796.663V180.104L793.975 184.01Z" fill="white" style="fill:white;fill-opacity:1;"/>
<path fill-rule="evenodd" clip-rule="evenodd" d="M842.708 168C839.394 168 836.708 170.686 836.708 174V175.917L828.732 182.453C827.756 183.253 827.756 184.747 828.732 185.547L836.708 192.083V194C836.708 197.314 839.394 200 842.708 200H954C957.314 200 960 197.314 960 194V174C960 170.686 957.314 168 954 168H842.708Z" fill="white" style="fill:white;fill-opacity:1;"/>
<path d="M859.227 189.144C855.739 189.144 853.419 186.904 853.419 183.16C853.419 179.416 855.739 177.192 859.227 177.192C862.731 177.192 865.035 179.432 865.035 183.16C865.035 186.92 862.715 189.144 859.227 189.144ZM859.227 187.32C861.451 187.32 862.859 185.848 862.859 183.16C862.859 180.472 861.435 179.016 859.227 179.016C857.019 179.016 855.611 180.472 855.611 183.16C855.611 185.864 857.019 187.32 859.227 187.32ZM866.711 189V180.488H868.631L868.711 182.104H868.807C869.287 180.936 870.375 180.328 871.607 180.328C873.335 180.328 874.631 181.32 874.631 183.896V189H872.631V184.328C872.631 182.728 872.087 181.976 870.839 181.976C869.495 181.976 868.711 183.032 868.711 184.312V189H866.711ZM881.607 189.16C880.247 189.16 879.223 188.456 878.807 187.432H878.695L878.615 189H876.695V177.336H878.695V182.056H878.807C879.223 181.016 880.247 180.328 881.607 180.328C883.671 180.328 885.047 181.848 885.047 184.744C885.047 187.624 883.671 189.16 881.607 189.16ZM880.871 187.528C882.151 187.528 883.015 186.616 883.015 184.744C883.015 182.872 882.151 181.96 880.871 181.96C879.431 181.96 878.711 183.096 878.711 184.296V185.192C878.711 186.392 879.431 187.528 880.871 187.528ZM890.516 189.144C887.988 189.144 886.292 187.48 886.292 184.744C886.292 182.12 887.876 180.328 890.516 180.328C893.028 180.328 894.708 182.008 894.708 184.744C894.708 187.368 893.14 189.144 890.516 189.144ZM890.5 187.496C891.812 187.496 892.692 186.568 892.692 184.744C892.692 182.936 891.844 181.976 890.516 181.976C889.188 181.976 888.308 182.92 888.308 184.744C888.308 186.536 889.156 187.496 890.5 187.496ZM899.373 189.144C897.325 189.144 895.949 187.624 895.949 184.744C895.949 181.848 897.325 180.328 899.373 180.328C900.749 180.328 901.773 181.016 902.189 182.056H902.301L902.381 180.488H904.301V189H902.301V187.416H902.189C901.773 188.456 900.749 189.144 899.373 189.144ZM900.125 187.512C901.549 187.512 902.269 186.376 902.269 185.176V184.296C902.269 183.08 901.549 181.96 900.125 181.96C898.845 181.96 897.981 182.872 897.981 184.744C897.981 186.6 898.845 187.512 900.125 187.512ZM906.445 189V180.488H908.253L908.349 181.912H908.413C908.797 180.824 909.725 180.376 910.829 180.376H911.325V182.264C911.197 182.264 911.005 182.248 910.797 182.248C909.245 182.248 908.509 183.016 908.445 184.344V189H906.445ZM915.326 189.144C913.278 189.144 911.902 187.624 911.902 184.744C911.902 181.848 913.278 180.328 915.326 180.328C916.702 180.328 917.726 181.016 918.142 182.056H918.254V177.336H920.254L920.238 189H918.318L918.254 187.416H918.142C917.726 188.456 916.702 189.144 915.326 189.144ZM916.078 187.512C917.502 187.512 918.222 186.376 918.222 185.176V184.296C918.222 183.08 917.502 181.96 916.078 181.96C914.798 181.96 913.934 182.872 913.934 184.744C913.934 186.6 914.798 187.512 916.078 187.512ZM922.399 179.288V177.336H924.399V179.288H922.399ZM922.399 189V180.488H924.399V189H922.399ZM926.555 189V180.488H928.475L928.555 182.104H928.651C929.131 180.936 930.219 180.328 931.451 180.328C933.179 180.328 934.475 181.32 934.475 183.896V189H932.475V184.328C932.475 182.728 931.931 181.976 930.683 181.976C929.339 181.976 928.555 183.032 928.555 184.312V189H926.555ZM940.011 191.832C937.867 191.832 936.539 190.856 936.395 189.32H938.315C938.443 189.976 939.083 190.392 940.059 190.392C941.499 190.392 942.187 189.8 942.187 188.424V186.856H942.075C941.691 187.848 940.683 188.504 939.387 188.504C937.339 188.504 936.011 187.064 936.011 184.408C936.011 181.768 937.371 180.328 939.419 180.328C940.699 180.328 941.691 180.968 942.075 181.944H942.187L942.251 180.488H944.187V188.104C944.187 190.856 942.507 191.832 940.011 191.832ZM940.107 186.952C941.451 186.952 942.155 185.944 942.187 184.92V183.896C942.139 182.888 941.451 181.88 940.123 181.88C938.859 181.88 938.043 182.76 938.043 184.408C938.043 186.088 938.875 186.952 940.107 186.952Z" fill="#0A0A1F" style="fill:#0A0A1F;fill:color(display-p3 0.0402 0.0402 0.1206);fill-opacity:1;"/>
</svg>
