<svg width="25" height="24" viewBox="0 0 25 24" fill="none" xmlns="http://www.w3.org/2000/svg">
<path d="M17.8467 5.25C16.1367 5.25 14.0967 5.9 14.0967 9V15C14.0967 18.1 16.1367 18.75 17.8467 18.75C19.5567 18.75 21.5967 18.1 21.5967 15V9C21.5967 5.9 19.5567 5.25 17.8467 5.25Z" fill="white" style="fill:white;fill-opacity:1;"/>
<path d="M7.48682 5.25C5.77682 5.25 3.73682 5.9 3.73682 9V15C3.73682 18.1 5.77682 18.75 7.48682 18.75C9.19682 18.75 11.2368 18.1 11.2368 15V9C11.2368 5.9 9.19682 5.25 7.48682 5.25Z" fill="white" style="fill:white;fill-opacity:1;"/>
<path d="M14.0968 11.25H11.2368V12.75H14.0968V11.25Z" fill="white" style="fill:white;fill-opacity:1;"/>
<path d="M23.1667 15.25C22.7567 15.25 22.4167 14.91 22.4167 14.5V9.5C22.4167 9.09 22.7567 8.75 23.1667 8.75C23.5767 8.75 23.9167 9.09 23.9167 9.5V14.5C23.9167 14.91 23.5767 15.25 23.1667 15.25Z" fill="white" style="fill:white;fill-opacity:1;"/>
<path d="M2.16675 15.25C1.75675 15.25 1.41675 14.91 1.41675 14.5V9.5C1.41675 9.09 1.75675 8.75 2.16675 8.75C2.57675 8.75 2.91675 9.09 2.91675 9.5V14.5C2.91675 14.91 2.57675 15.25 2.16675 15.25Z" fill="white" style="fill:white;fill-opacity:1;"/>
</svg>
