<svg width="1440" height="1101" viewBox="0 0 1440 1101" fill="none" xmlns="http://www.w3.org/2000/svg">
<path d="M1689.54 471.564L1497.87 266.041C1496.36 264.418 1494.24 263.497 1492.02 263.497L1193.84 263.474C1191.72 263.474 1189.68 264.317 1188.18 265.817L930.436 523.564C928.936 525.064 928.093 527.099 928.093 529.221L928.093 699.978C928.093 702.226 929.038 704.369 930.698 705.885L1106.13 866.119C1107.7 867.549 1108.63 869.541 1108.73 871.658L1114.08 987.873C1114.18 989.865 1115.01 991.751 1116.42 993.162L1283.6 1160.35" stroke="white" stroke-opacity="0.2" style="stroke:white;stroke-opacity:0.2;"/>
<path d="M-249.241 471.564L-57.5675 266.041C-56.0545 264.418 -53.9358 263.497 -51.7175 263.497L246.461 263.474C248.583 263.474 250.618 264.317 252.119 265.817L509.866 523.564C511.366 525.064 512.209 527.099 512.209 529.221L512.209 692.268C512.209 694.451 511.317 696.54 509.739 698.049L334.037 866.138C332.552 867.559 331.67 869.497 331.576 871.551L326.218 987.873C326.126 989.865 325.294 991.751 323.883 993.162L156.699 1160.35" stroke="white" stroke-opacity="0.2" style="stroke:white;stroke-opacity:0.2;"/>
<line x1="928.5" y1="1.85176e-08" x2="928.5" y2="527" stroke="white" stroke-opacity="0.2" style="stroke:white;stroke-opacity:0.2;"/>
<line x1="512.5" y1="1.85176e-08" x2="512.5" y2="527" stroke="white" stroke-opacity="0.2" style="stroke:white;stroke-opacity:0.2;"/>
</svg>
