<svg width="32" height="32" viewBox="0 0 32 32" fill="none" xmlns="http://www.w3.org/2000/svg">
<path d="M15.92 2.94668L12.7067 10.4267H9.49335C8.96002 10.4267 8.44002 10.4667 7.93335 10.5733L9.26668 7.37334L9.32002 7.25334L9.40002 7.04001C9.44002 6.94668 9.46668 6.86668 9.50668 6.80001C11.0533 3.21334 12.7867 2.09334 15.92 2.94668Z" fill="white" style="fill:white;fill-opacity:1;"/>
<path d="M24.9732 10.7867L24.9466 10.7733C24.1466 10.5467 23.3332 10.4267 22.5066 10.4267H14.1599L17.1599 3.45332L17.1999 3.35999C17.3866 3.42665 17.5866 3.51999 17.7866 3.58665L20.7332 4.82665C22.3732 5.50665 23.5199 6.21332 24.2266 7.06665C24.3466 7.22665 24.4532 7.37332 24.5599 7.54665C24.6799 7.73332 24.7732 7.91999 24.8266 8.11999C24.8799 8.23999 24.9199 8.34665 24.9466 8.46665C25.1466 9.14665 25.1599 9.91999 24.9732 10.7867Z" fill="white" style="fill:white;fill-opacity:1;"/>
<path d="M16.6934 23.5467H17.0267C17.4267 23.5467 17.76 23.1867 17.76 22.7467C17.76 22.1867 17.6 22.1067 17.2534 21.9733L16.6934 21.7733V23.5467Z" fill="white" style="fill:white;fill-opacity:1;"/>
<path d="M24.3866 12.6933C23.7866 12.52 23.1599 12.4267 22.5066 12.4267H9.49324C8.58657 12.4267 7.73324 12.6 6.93324 12.9467C4.61324 13.9467 2.98657 16.2533 2.98657 18.9333V21.5333C2.98657 21.8533 3.01324 22.16 3.05324 22.48C3.34657 26.72 5.61324 28.9867 9.85324 29.2667C10.1599 29.3067 10.4666 29.3333 10.7999 29.3333H21.1999C26.1332 29.3333 28.7332 26.9867 28.9866 22.32C28.9999 22.0667 29.0132 21.8 29.0132 21.5333V18.9333C29.0132 15.9867 27.0532 13.5067 24.3866 12.6933ZM17.7066 20.6667C18.3199 20.88 19.1466 21.3333 19.1466 22.7467C19.1466 23.96 18.1999 24.9333 17.0266 24.9333H16.6932V25.2267C16.6932 25.6133 16.3866 25.92 15.9999 25.92C15.6132 25.92 15.3066 25.6133 15.3066 25.2267V24.9333H15.1866C13.9066 24.9333 12.8532 23.8533 12.8532 22.52C12.8532 22.1333 13.1599 21.8267 13.5466 21.8267C13.9332 21.8267 14.2399 22.1333 14.2399 22.52C14.2399 23.08 14.6666 23.5467 15.1866 23.5467H15.3066V21.2933L14.2932 20.9333C13.6799 20.72 12.8532 20.2667 12.8532 18.8533C12.8532 17.64 13.7999 16.6667 14.9732 16.6667H15.3066V16.3733C15.3066 15.9867 15.6132 15.68 15.9999 15.68C16.3866 15.68 16.6932 15.9867 16.6932 16.3733V16.6667H16.8132C18.0932 16.6667 19.1466 17.7467 19.1466 19.08C19.1466 19.4667 18.8399 19.7733 18.4532 19.7733C18.0666 19.7733 17.7599 19.4667 17.7599 19.08C17.7599 18.52 17.3332 18.0533 16.8132 18.0533H16.6932V20.3067L17.7066 20.6667Z" fill="white" style="fill:white;fill-opacity:1;"/>
<path d="M14.24 18.8533C14.24 19.4133 14.4 19.4933 14.7467 19.6267L15.3067 19.8267V18.0533H14.9733C14.56 18.0533 14.24 18.4133 14.24 18.8533Z" fill="white" style="fill:white;fill-opacity:1;"/>
</svg>
