<svg width="32" height="32" viewBox="0 0 32 32" fill="none" xmlns="http://www.w3.org/2000/svg">
<path d="M21.5867 2.66667H10.4134C5.56008 2.66667 2.66675 5.56 2.66675 10.4133V21.5733C2.66675 26.44 5.56008 29.3333 10.4134 29.3333H21.5734C26.4267 29.3333 29.3201 26.44 29.3201 21.5867V10.4133C29.3334 5.56 26.4401 2.66667 21.5867 2.66667ZM12.8001 21.6C12.8001 22.92 11.7201 24 10.4001 24C9.08008 24 8.00008 22.92 8.00008 21.6C8.00008 20.28 9.08008 19.2 10.4001 19.2H11.4667C12.2001 19.2 12.8001 19.8 12.8001 20.5333V21.6ZM12.8001 11.4667C12.8001 12.2 12.2001 12.8 11.4667 12.8H10.4001C9.08008 12.8 8.00008 11.72 8.00008 10.4C8.00008 9.08001 9.08008 8.00001 10.4001 8.00001C11.7201 8.00001 12.8001 9.08001 12.8001 10.4V11.4667ZM18.8667 17.6667C18.8667 18.32 18.3334 18.8667 17.6667 18.8667H14.3201C13.6667 18.8667 13.1201 18.3333 13.1201 17.6667V14.32C13.1201 13.6667 13.6534 13.12 14.3201 13.12H17.6667C18.3201 13.12 18.8667 13.6533 18.8667 14.32V17.6667ZM21.6001 24C20.2801 24 19.2001 22.92 19.2001 21.6V20.5333C19.2001 19.8 19.8001 19.2 20.5334 19.2H21.6001C22.9201 19.2 24.0001 20.28 24.0001 21.6C24.0001 22.92 22.9201 24 21.6001 24ZM21.6001 12.8H20.5334C19.8001 12.8 19.2001 12.2 19.2001 11.4667V10.4C19.2001 9.08001 20.2801 8.00001 21.6001 8.00001C22.9201 8.00001 24.0001 9.08001 24.0001 10.4C24.0001 11.72 22.9201 12.8 21.6001 12.8Z" fill="white" style="fill:white;fill-opacity:1;"/>
</svg>
