<svg width="32" height="32" viewBox="0 0 32 32" fill="none" xmlns="http://www.w3.org/2000/svg">
<path d="M10.2001 27.88C10.1601 27.88 10.1067 27.9067 10.0667 27.9067C7.48008 26.6267 5.37341 24.5067 4.08008 21.92C4.08008 21.88 4.10674 21.8267 4.10674 21.7867C5.73341 22.2667 7.41341 22.6267 9.08008 22.9067C9.37341 24.5867 9.72008 26.2533 10.2001 27.88Z" fill="white" style="fill:white;fill-opacity:1;"/>
<path d="M27.92 21.9333C26.6 24.5867 24.4 26.7333 21.72 28.0267C22.2266 26.3333 22.6533 24.6267 22.9333 22.9067C24.6133 22.6267 26.2666 22.2667 27.8933 21.7867C27.88 21.84 27.92 21.8933 27.92 21.9333Z" fill="white" style="fill:white;fill-opacity:1;"/>
<path d="M28.0266 10.28C26.3466 9.77333 24.6533 9.36 22.9333 9.06667C22.6533 7.34667 22.24 5.64 21.72 3.97334C24.48 5.29334 26.7066 7.52 28.0266 10.28Z" fill="white" style="fill:white;fill-opacity:1;"/>
<path d="M10.2001 4.12C9.72006 5.74667 9.37339 7.4 9.09339 9.08C7.37339 9.34667 5.66672 9.77333 3.97339 10.28C5.26672 7.6 7.41339 5.4 10.0667 4.08C10.1067 4.08 10.1601 4.12 10.2001 4.12Z" fill="white" style="fill:white;fill-opacity:1;"/>
<path d="M20.6533 8.78667C17.56 8.44 14.44 8.44 11.3467 8.78667C11.68 6.96 12.1067 5.13333 12.7067 3.37333C12.7333 3.26667 12.72 3.18667 12.7333 3.08C13.7867 2.82667 14.8667 2.66667 16 2.66667C17.12 2.66667 18.2133 2.82667 19.2533 3.08C19.2667 3.18667 19.2667 3.26667 19.2933 3.37333C19.8933 5.14667 20.32 6.96 20.6533 8.78667Z" fill="white" style="fill:white;fill-opacity:1;"/>
<path d="M8.78675 20.6533C6.94675 20.32 5.13341 19.8933 3.37341 19.2933C3.26675 19.2667 3.18675 19.28 3.08008 19.2667C2.82675 18.2133 2.66675 17.1333 2.66675 16C2.66675 14.88 2.82675 13.7867 3.08008 12.7467C3.18675 12.7333 3.26675 12.7333 3.37341 12.7067C5.14675 12.12 6.94675 11.68 8.78675 11.3467C8.45341 14.44 8.45341 17.56 8.78675 20.6533Z" fill="white" style="fill:white;fill-opacity:1;"/>
<path d="M29.3334 16C29.3334 17.1333 29.1734 18.2133 28.92 19.2667C28.8134 19.28 28.7334 19.2667 28.6267 19.2933C26.8534 19.88 25.04 20.32 23.2134 20.6533C23.56 17.56 23.56 14.44 23.2134 11.3467C25.04 11.68 26.8667 12.1067 28.6267 12.7067C28.7334 12.7333 28.8134 12.7467 28.92 12.7467C29.1734 13.8 29.3334 14.88 29.3334 16Z" fill="white" style="fill:white;fill-opacity:1;"/>
<path d="M20.6533 23.2133C20.32 25.0533 19.8933 26.8667 19.2933 28.6267C19.2667 28.7333 19.2667 28.8133 19.2533 28.92C18.2133 29.1733 17.12 29.3333 16 29.3333C14.8667 29.3333 13.7867 29.1733 12.7333 28.92C12.72 28.8133 12.7333 28.7333 12.7067 28.6267C12.12 26.8533 11.68 25.0533 11.3467 23.2133C12.8933 23.3867 14.44 23.5067 16 23.5067C17.56 23.5067 19.12 23.3867 20.6533 23.2133Z" fill="white" style="fill:white;fill-opacity:1;"/>
<path d="M21.0179 21.0178C17.6831 21.4385 14.3171 21.4385 10.9823 21.0178C10.5616 17.683 10.5616 14.317 10.9823 10.9822C14.3171 10.5615 17.6831 10.5615 21.0179 10.9822C21.4386 14.317 21.4386 17.683 21.0179 21.0178Z" fill="white" style="fill:white;fill-opacity:1;"/>
</svg>
