<svg width="16" height="16" viewBox="0 0 16 16" fill="none" xmlns="http://www.w3.org/2000/svg">
<path d="M5.40666 7.9C3.52666 8.03334 3.53333 10.7667 5.40666 10.9H9.85333C10.3933 10.9067 10.9133 10.7 11.3133 10.34C12.6333 9.18667 11.9267 6.87334 10.1933 6.65334C9.57333 2.89334 4.14 4.32 5.42666 7.9" fill="white" style="fill:white;fill-opacity:1;"/>
<path d="M6 15.1667C3.15333 15.1667 0.833328 12.8467 0.833328 10C0.833328 9.72667 1.05999 9.5 1.33333 9.5C1.60666 9.5 1.83333 9.72667 1.83333 10C1.83333 11.9733 3.20666 13.6267 5.05333 14.06L4.87333 13.76C4.73333 13.52 4.80666 13.2133 5.04666 13.0733C5.27999 12.9333 5.59333 13.0067 5.73333 13.2467L6.43333 14.4133C6.52666 14.5667 6.52666 14.76 6.43999 14.9133C6.34666 15.0667 6.18 15.1667 6 15.1667Z" fill="white" style="fill:white;fill-opacity:1;"/>
<path d="M14.6667 6.49992C14.3933 6.49992 14.1667 6.27325 14.1667 5.99992C14.1667 4.02659 12.7933 2.37325 10.9467 1.93992L11.1267 2.23992C11.2667 2.47992 11.1933 2.78659 10.9533 2.92658C10.72 3.06659 10.4067 2.99325 10.2667 2.75325L9.56666 1.58659C9.47333 1.43325 9.47333 1.23992 9.55999 1.08659C9.65333 0.933252 9.81999 0.833252 9.99999 0.833252C12.8467 0.833252 15.1667 3.15325 15.1667 5.99992C15.1667 6.27325 14.94 6.49992 14.6667 6.49992Z" fill="white" style="fill:white;fill-opacity:1;"/>
</svg>
