<svg width="16" height="16" viewBox="0 0 16 16" fill="none" xmlns="http://www.w3.org/2000/svg">
<path d="M11.3334 2.66675H4.66671C2.66671 2.66675 1.33337 3.66675 1.33337 6.00008V8.37341C1.33337 8.62008 1.58671 8.77341 1.80671 8.67341C2.46004 8.37341 3.21337 8.26008 4.00671 8.40008C5.76004 8.71341 7.04671 10.3401 7.00004 12.1201C6.99337 12.4001 6.95337 12.6734 6.88004 12.9401C6.82671 13.1467 6.99337 13.3401 7.20671 13.3401H11.3334C13.3334 13.3401 14.6667 12.3401 14.6667 10.0067V6.00008C14.6667 3.66675 13.3334 2.66675 11.3334 2.66675ZM8.00004 9.66675C7.08004 9.66675 6.33337 8.92008 6.33337 8.00008C6.33337 7.08008 7.08004 6.33341 8.00004 6.33341C8.92004 6.33341 9.66671 7.08008 9.66671 8.00008C9.66671 8.92008 8.92004 9.66675 8.00004 9.66675ZM12.8334 9.33341C12.8334 9.60675 12.6067 9.83341 12.3334 9.83341C12.06 9.83341 11.8334 9.60675 11.8334 9.33341V6.66675C11.8334 6.39341 12.06 6.16675 12.3334 6.16675C12.6067 6.16675 12.8334 6.39341 12.8334 6.66675V9.33341Z" fill="white" style="fill:white;fill-opacity:1;"/>
<path d="M3.33329 9.33325C1.85996 9.33325 0.666626 10.5266 0.666626 11.9999C0.666626 12.4999 0.806626 12.9733 1.05329 13.3733C1.51329 14.1466 2.35996 14.6666 3.33329 14.6666C4.30663 14.6666 5.15329 14.1466 5.61329 13.3733C5.85996 12.9733 5.99996 12.4999 5.99996 11.9999C5.99996 10.5266 4.80663 9.33325 3.33329 9.33325ZM4.64663 11.7799L3.22663 13.0933C3.13329 13.1799 3.00663 13.2266 2.88663 13.2266C2.75996 13.2266 2.63329 13.1799 2.53329 13.0799L1.87329 12.4199C1.67996 12.2266 1.67996 11.9066 1.87329 11.7133C2.06663 11.5199 2.38663 11.5199 2.57996 11.7133L2.89996 12.0333L3.96663 11.0466C4.16663 10.8599 4.48663 10.8733 4.67329 11.0733C4.85996 11.2733 4.84663 11.5933 4.64663 11.7799Z" fill="white" style="fill:white;fill-opacity:1;"/>
</svg>
