<svg width="16" height="16" viewBox="0 0 16 16" fill="none" xmlns="http://www.w3.org/2000/svg">
<path d="M5.99998 1.33325C4.25331 1.33325 2.83331 2.75325 2.83331 4.49992C2.83331 6.21325 4.17331 7.59992 5.91998 7.65992C5.97331 7.65325 6.02665 7.65325 6.06665 7.65992C6.07998 7.65992 6.08665 7.65992 6.09998 7.65992C6.10665 7.65992 6.10665 7.65992 6.11331 7.65992C7.81998 7.59992 9.15998 6.21325 9.16665 4.49992C9.16665 2.75325 7.74665 1.33325 5.99998 1.33325Z" fill="white" style="fill:white;fill-opacity:1;"/>
<path d="M9.38664 9.43342C7.52664 8.19342 4.49331 8.19342 2.61997 9.43342C1.77331 10.0001 1.30664 10.7668 1.30664 11.5868C1.30664 12.4068 1.77331 13.1668 2.61331 13.7268C3.54664 14.3534 4.77331 14.6668 5.99997 14.6668C7.22664 14.6668 8.45331 14.3534 9.38664 13.7268C10.2266 13.1601 10.6933 12.4001 10.6933 11.5734C10.6866 10.7534 10.2266 9.99342 9.38664 9.43342Z" fill="white" style="fill:white;fill-opacity:1;"/>
<path d="M13.3267 4.89332C13.4333 6.18665 12.5133 7.31999 11.24 7.47332C11.2333 7.47332 11.2333 7.47332 11.2267 7.47332H11.2067C11.1667 7.47332 11.1267 7.47332 11.0933 7.48665C10.4467 7.51998 9.85334 7.31332 9.40668 6.93332C10.0933 6.31998 10.4867 5.39999 10.4067 4.39999C10.36 3.85998 10.1733 3.36665 9.89334 2.94665C10.1467 2.81999 10.44 2.73999 10.74 2.71332C12.0467 2.59999 13.2133 3.57332 13.3267 4.89332Z" fill="white" style="fill:white;fill-opacity:1;"/>
<path d="M14.66 11.0599C14.6067 11.7066 14.1933 12.2666 13.5 12.6466C12.8333 13.0133 11.9933 13.1866 11.16 13.1666C11.64 12.7333 11.92 12.1933 11.9733 11.6199C12.04 10.7933 11.6467 9.99994 10.86 9.36661C10.4133 9.01327 9.89333 8.73327 9.32666 8.52661C10.8 8.09994 12.6533 8.38661 13.7933 9.30661C14.4067 9.79994 14.72 10.4199 14.66 11.0599Z" fill="white" style="fill:white;fill-opacity:1;"/>
</svg>
