<svg width="100" height="32" viewBox="0 0 100 32" fill="none" xmlns="http://www.w3.org/2000/svg">
<path fill-rule="evenodd" clip-rule="evenodd" d="M14 10C15.1867 10 16.3467 10.3519 17.3334 11.0112C18.3201 11.6705 19.0891 12.6075 19.5433 13.7039C19.9974 14.8002 20.1162 16.0067 19.8847 17.1705C19.6532 18.3344 19.0818 19.4035 18.2427 20.2427C17.4035 21.0818 16.3344 21.6532 15.1705 21.8847C14.0067 22.1162 12.8002 21.9974 11.7039 21.5433C10.6075 21.0891 9.67046 20.3201 9.01118 19.3334C8.3519 18.3467 8 17.1867 8 16H2.00829C3.58133 15.9989 5.13884 15.6886 6.59221 15.0866C8.04812 14.4835 9.371 13.5996 10.4853 12.4853C11.5996 11.371 12.4835 10.0481 13.0866 8.59221C13.6896 7.13629 14 5.57586 14 4L8 4C8 4.78793 7.84481 5.56815 7.54328 6.29611C7.24175 7.02406 6.79979 7.68549 6.24264 8.24265C5.68549 8.7998 5.02406 9.24175 4.2961 9.54328C3.56814 9.84481 2.78793 10 2 10V16C2 18.3734 2.70379 20.6934 4.02237 22.6668C5.34094 24.6402 7.21508 26.1783 9.40778 27.0866C11.6005 27.9948 14.0133 28.2324 16.3411 27.7694C18.6688 27.3064 20.8071 26.1635 22.4853 24.4853C24.1635 22.8071 25.3064 20.6688 25.7694 18.3411C26.2324 16.0133 25.9948 13.6005 25.0866 11.4078C24.1783 9.21509 22.6402 7.34094 20.6668 6.02237C18.6934 4.70379 16.3734 4 14 4V10Z" fill="white" style="fill:white;fill-opacity:1;"/>
<path d="M45.568 24.16L44.848 21.736H39.256L38.536 24.16H33.88L39.424 7.36H44.656L50.2 24.16H45.568ZM40.36 18.04H43.744L42.04 12.328L40.36 18.04Z" fill="white" style="fill:white;fill-opacity:1;"/>
<path d="M58.4442 24.52C55.9162 24.52 53.8202 23.688 52.1562 22.024C50.5082 20.344 49.6842 18.256 49.6842 15.76C49.6842 13.264 50.5082 11.184 52.1562 9.52C53.8202 7.84 55.9162 7 58.4442 7C59.9642 7 61.3722 7.36 62.6682 8.08C63.9642 8.8 64.9802 9.768 65.7162 10.984L61.9962 13.12C61.6762 12.528 61.1962 12.064 60.5562 11.728C59.9322 11.376 59.2282 11.2 58.4442 11.2C57.1002 11.2 56.0122 11.624 55.1802 12.472C54.3642 13.304 53.9562 14.4 53.9562 15.76C53.9562 17.12 54.3642 18.224 55.1802 19.072C56.0122 19.904 57.1002 20.32 58.4442 20.32C59.2282 20.32 59.9322 20.152 60.5562 19.816C61.1962 19.464 61.6762 18.984 61.9962 18.376L65.7162 20.536C64.9802 21.768 63.9642 22.744 62.6682 23.464C61.3882 24.168 59.9802 24.52 58.4442 24.52Z" fill="white" style="fill:white;fill-opacity:1;"/>
<path d="M83.9101 7.36V24.16H79.6381V15.112L75.5581 21.856H75.1261L71.0701 15.136V24.16H66.7741V7.36H71.0701L75.3421 14.536L79.6381 7.36H83.9101Z" fill="white" style="fill:white;fill-opacity:1;"/>
<path d="M90.3948 20.128H96.8988V24.16H86.0988V7.36H96.7788V11.368H90.3948V13.696H96.1788V17.656H90.3948V20.128Z" fill="white" style="fill:white;fill-opacity:1;"/>
</svg>
