<svg width="124" height="32" viewBox="0 0 124 32" fill="none" xmlns="http://www.w3.org/2000/svg">
<path d="M42.5762 25L48.7682 7.72H51.9362L46.2482 25H42.5762ZM55.2482 25L49.5842 7.72H52.8962L59.0882 25H55.2482ZM45.8402 18.304H55.5362V21.184H45.8402V18.304Z" fill="black" style="fill:black;fill-opacity:1;"/>
<path d="M63.678 25.24C62.814 25.24 62.07 25.056 61.446 24.688C60.838 24.304 60.374 23.8 60.054 23.176C59.734 22.536 59.574 21.824 59.574 21.04V12.76H63.174V20.344C63.174 21.016 63.342 21.52 63.678 21.856C64.014 22.192 64.486 22.36 65.094 22.36C65.638 22.36 66.118 22.232 66.534 21.976C66.95 21.72 67.278 21.368 67.518 20.92C67.774 20.456 67.902 19.928 67.902 19.336L68.214 22.288C67.814 23.168 67.23 23.88 66.462 24.424C65.694 24.968 64.766 25.24 63.678 25.24ZM67.974 25V22.12H67.902V12.76H71.502V25H67.974Z" fill="black" style="fill:black;fill-opacity:1;"/>
<path d="M73.9099 25V12.76H77.4379V15.64H77.5099V25H73.9099ZM77.5099 18.616L77.1979 15.712C77.4859 14.672 77.9579 13.88 78.6139 13.336C79.2699 12.792 80.0859 12.52 81.0619 12.52C81.3659 12.52 81.5899 12.552 81.7339 12.616V15.976C81.6539 15.944 81.5419 15.928 81.3979 15.928C81.2539 15.912 81.0779 15.904 80.8699 15.904C79.7179 15.904 78.8699 16.112 78.3259 16.528C77.7819 16.928 77.5099 17.624 77.5099 18.616Z" fill="black" style="fill:black;fill-opacity:1;"/>
<path d="M88.5649 25.24C87.2049 25.24 86.0209 24.976 85.0129 24.448C84.0049 23.904 83.2209 23.152 82.6609 22.192C82.1169 21.232 81.8449 20.128 81.8449 18.88C81.8449 17.616 82.1169 16.512 82.6609 15.568C83.2209 14.608 83.9969 13.864 84.9889 13.336C85.9809 12.792 87.1329 12.52 88.4449 12.52C89.7089 12.52 90.8049 12.776 91.7329 13.288C92.6609 13.8 93.3809 14.512 93.8929 15.424C94.4049 16.336 94.6609 17.408 94.6609 18.64C94.6609 18.896 94.6529 19.136 94.6369 19.36C94.6209 19.568 94.5969 19.768 94.5649 19.96H83.9569V17.584H91.6609L91.0369 18.016C91.0369 17.024 90.7969 16.296 90.3169 15.832C89.8529 15.352 89.2129 15.112 88.3969 15.112C87.4529 15.112 86.7169 15.432 86.1889 16.072C85.6769 16.712 85.4209 17.672 85.4209 18.952C85.4209 20.2 85.6769 21.128 86.1889 21.736C86.7169 22.344 87.5009 22.648 88.5409 22.648C89.1169 22.648 89.6129 22.552 90.0289 22.36C90.4449 22.168 90.7569 21.856 90.9649 21.424H94.3489C93.9489 22.608 93.2609 23.544 92.2849 24.232C91.3249 24.904 90.0849 25.24 88.5649 25.24Z" fill="black" style="fill:black;fill-opacity:1;"/>
<path d="M99.0905 25L94.2665 12.76H98.1306L101.899 24.184H99.8825L103.627 12.76H107.395L102.571 25H99.0905Z" fill="black" style="fill:black;fill-opacity:1;"/>
<path d="M113.739 25.24C112.395 25.24 111.211 24.976 110.187 24.448C109.179 23.904 108.387 23.152 107.811 22.192C107.251 21.216 106.971 20.096 106.971 18.832C106.971 17.568 107.251 16.464 107.811 15.52C108.387 14.576 109.179 13.84 110.187 13.312C111.211 12.784 112.395 12.52 113.739 12.52C115.099 12.52 116.283 12.784 117.291 13.312C118.315 13.84 119.107 14.576 119.667 15.52C120.227 16.464 120.507 17.568 120.507 18.832C120.507 20.096 120.219 21.216 119.643 22.192C119.083 23.152 118.291 23.904 117.267 24.448C116.259 24.976 115.083 25.24 113.739 25.24ZM113.739 22.408C114.299 22.408 114.803 22.264 115.251 21.976C115.715 21.688 116.083 21.28 116.355 20.752C116.627 20.208 116.763 19.56 116.763 18.808C116.763 17.704 116.467 16.856 115.875 16.264C115.299 15.656 114.587 15.352 113.739 15.352C112.891 15.352 112.171 15.656 111.579 16.264C111.003 16.872 110.715 17.72 110.715 18.808C110.715 19.56 110.851 20.208 111.123 20.752C111.395 21.28 111.755 21.688 112.203 21.976C112.667 22.264 113.179 22.408 113.739 22.408Z" fill="black" style="fill:black;fill-opacity:1;"/>
<path d="M12.7685 4H19.1762L16.6042 11.1878C12.0772 11.9833 8.61468 16.3632 8.61468 21.647C8.61468 24.0307 9.31934 26.2304 10.5084 28H2L9.77834 6.26299C10.2674 4.89622 11.4516 4 12.7685 4Z" fill="black" style="fill:black;fill-opacity:1;"/>
<path d="M23.2315 4H16.8237L19.385 11.1574C24.0021 11.8649 27.5589 16.2916 27.5589 21.647C27.5589 24.0307 26.8542 26.2304 25.6651 28H33.9999L26.2216 6.263C25.7326 4.89622 24.5483 4 23.2315 4Z" fill="black" style="fill:black;fill-opacity:1;"/>
</svg>
