<svg width="124" height="32" viewBox="0 0 124 32" fill="none" xmlns="http://www.w3.org/2000/svg">
<path d="M42.5759 25L48.7679 7.72H51.9359L46.2479 25H42.5759ZM55.2479 25L49.5839 7.72H52.8959L59.0879 25H55.2479ZM45.8399 18.304H55.5359V21.184H45.8399V18.304Z" fill="white" style="fill:white;fill-opacity:1;"/>
<path d="M63.6777 25.24C62.8137 25.24 62.0697 25.056 61.4457 24.688C60.8377 24.304 60.3737 23.8 60.0537 23.176C59.7337 22.536 59.5737 21.824 59.5737 21.04V12.76H63.1737V20.344C63.1737 21.016 63.3417 21.52 63.6777 21.856C64.0137 22.192 64.4857 22.36 65.0937 22.36C65.6377 22.36 66.1177 22.232 66.5337 21.976C66.9497 21.72 67.2777 21.368 67.5177 20.92C67.7737 20.456 67.9017 19.928 67.9017 19.336L68.2137 22.288C67.8137 23.168 67.2297 23.88 66.4617 24.424C65.6937 24.968 64.7657 25.24 63.6777 25.24ZM67.9737 25V22.12H67.9017V12.76H71.5017V25H67.9737Z" fill="white" style="fill:white;fill-opacity:1;"/>
<path d="M73.9096 25V12.76H77.4376V15.64H77.5096V25H73.9096ZM77.5096 18.616L77.1976 15.712C77.4856 14.672 77.9576 13.88 78.6136 13.336C79.2696 12.792 80.0856 12.52 81.0616 12.52C81.3656 12.52 81.5896 12.552 81.7336 12.616V15.976C81.6536 15.944 81.5416 15.928 81.3976 15.928C81.2536 15.912 81.0776 15.904 80.8696 15.904C79.7176 15.904 78.8696 16.112 78.3256 16.528C77.7816 16.928 77.5096 17.624 77.5096 18.616Z" fill="white" style="fill:white;fill-opacity:1;"/>
<path d="M88.5646 25.24C87.2046 25.24 86.0206 24.976 85.0126 24.448C84.0046 23.904 83.2206 23.152 82.6606 22.192C82.1166 21.232 81.8446 20.128 81.8446 18.88C81.8446 17.616 82.1166 16.512 82.6606 15.568C83.2206 14.608 83.9966 13.864 84.9886 13.336C85.9806 12.792 87.1326 12.52 88.4446 12.52C89.7086 12.52 90.8046 12.776 91.7326 13.288C92.6606 13.8 93.3806 14.512 93.8926 15.424C94.4046 16.336 94.6606 17.408 94.6606 18.64C94.6606 18.896 94.6526 19.136 94.6366 19.36C94.6206 19.568 94.5966 19.768 94.5646 19.96H83.9566V17.584H91.6606L91.0366 18.016C91.0366 17.024 90.7966 16.296 90.3166 15.832C89.8526 15.352 89.2126 15.112 88.3966 15.112C87.4526 15.112 86.7166 15.432 86.1886 16.072C85.6766 16.712 85.4206 17.672 85.4206 18.952C85.4206 20.2 85.6766 21.128 86.1886 21.736C86.7166 22.344 87.5006 22.648 88.5406 22.648C89.1166 22.648 89.6126 22.552 90.0286 22.36C90.4446 22.168 90.7566 21.856 90.9646 21.424H94.3486C93.9486 22.608 93.2606 23.544 92.2846 24.232C91.3246 24.904 90.0846 25.24 88.5646 25.24Z" fill="white" style="fill:white;fill-opacity:1;"/>
<path d="M99.0903 25L94.2663 12.76H98.1303L101.898 24.184H99.8823L103.626 12.76H107.394L102.57 25H99.0903Z" fill="white" style="fill:white;fill-opacity:1;"/>
<path d="M113.739 25.24C112.395 25.24 111.211 24.976 110.187 24.448C109.179 23.904 108.387 23.152 107.811 22.192C107.251 21.216 106.971 20.096 106.971 18.832C106.971 17.568 107.251 16.464 107.811 15.52C108.387 14.576 109.179 13.84 110.187 13.312C111.211 12.784 112.395 12.52 113.739 12.52C115.099 12.52 116.283 12.784 117.291 13.312C118.315 13.84 119.107 14.576 119.667 15.52C120.227 16.464 120.507 17.568 120.507 18.832C120.507 20.096 120.219 21.216 119.643 22.192C119.083 23.152 118.291 23.904 117.267 24.448C116.259 24.976 115.083 25.24 113.739 25.24ZM113.739 22.408C114.299 22.408 114.803 22.264 115.251 21.976C115.715 21.688 116.083 21.28 116.355 20.752C116.627 20.208 116.763 19.56 116.763 18.808C116.763 17.704 116.467 16.856 115.875 16.264C115.299 15.656 114.587 15.352 113.739 15.352C112.891 15.352 112.171 15.656 111.579 16.264C111.003 16.872 110.715 17.72 110.715 18.808C110.715 19.56 110.851 20.208 111.123 20.752C111.395 21.28 111.755 21.688 112.203 21.976C112.667 22.264 113.179 22.408 113.739 22.408Z" fill="white" style="fill:white;fill-opacity:1;"/>
<path d="M12.7685 4H19.1762L16.6042 11.1878C12.0772 11.9833 8.61468 16.3632 8.61468 21.647C8.61468 24.0307 9.31934 26.2304 10.5084 28H2L9.77834 6.26299C10.2674 4.89622 11.4516 4 12.7685 4Z" fill="white" style="fill:white;fill-opacity:1;"/>
<path d="M23.2315 4H16.8237L19.385 11.1574C24.0021 11.8649 27.5589 16.2916 27.5589 21.647C27.5589 24.0307 26.8542 26.2304 25.6651 28H33.9999L26.2216 6.263C25.7326 4.89622 24.5483 4 23.2315 4Z" fill="white" style="fill:white;fill-opacity:1;"/>
</svg>
