<svg width="154" height="32" viewBox="0 0 154 32" fill="none" xmlns="http://www.w3.org/2000/svg">
<path d="M38.2639 24L39.3919 21.168L44.8399 7.20002H48.4639L53.9839 21.312L55.0159 24H51.1999L50.3599 21.528L49.9279 20.304H43.3039L42.8479 21.648L42.0559 24H38.2639ZM44.3839 17.208H48.8719L46.6159 10.752L44.3839 17.208Z" fill="white" style="fill:white;fill-opacity:1;"/>
<path d="M59.4437 12.168C60.1637 13.224 60.1637 13.224 60.7637 14.064L61.9397 15.696L63.1157 14.04L64.4597 12.168H68.2277L66.4037 14.64L63.8597 18L66.5957 21.624L68.3717 24H64.2677C63.4757 22.8 63.4757 22.776 62.8757 21.912L61.6277 20.16L60.1397 22.32L59.0117 24H55.2197L57.0917 21.432L59.7077 17.904L56.9717 14.328L55.3637 12.168H59.4437Z" fill="white" style="fill:white;fill-opacity:1;"/>
<path d="M69.7049 24V12.168H73.0649V24H69.7049ZM69.3689 8.59202C69.3689 7.48802 70.2329 6.62402 71.3849 6.62402C72.5369 6.62402 73.4009 7.48802 73.4009 8.59202C73.4009 9.74402 72.5369 10.56 71.3849 10.56C70.2329 10.56 69.3689 9.74402 69.3689 8.59202Z" fill="white" style="fill:white;fill-opacity:1;"/>
<path d="M81.6863 24.36C78.1583 24.36 75.2543 21.96 75.2543 18.048C75.2543 14.136 78.1583 11.808 81.6863 11.808C85.2143 11.808 88.1183 14.136 88.1183 18.048C88.1183 21.96 85.2143 24.36 81.6863 24.36ZM78.7583 18.048C78.7583 19.944 79.9343 21.264 81.6863 21.264C83.4383 21.264 84.6143 19.944 84.6143 18.048C84.6143 16.176 83.4383 14.904 81.6863 14.904C79.9103 14.904 78.7583 16.176 78.7583 18.048Z" fill="white" style="fill:white;fill-opacity:1;"/>
<path d="M90.3074 24V12.168H93.6674V13.344C94.3634 12.36 95.5154 11.808 96.9794 11.808C98.5634 11.808 99.7154 12.408 100.411 13.416C101.179 12.432 102.427 11.808 104.059 11.808C107.155 11.808 108.811 13.656 108.811 16.344V24H105.451V17.28C105.451 15.864 104.683 15 103.363 15C102.379 15 101.635 15.504 101.227 16.44V24H97.8914V17.28C97.8914 15.864 97.1234 15 95.8274 15C94.8194 15 94.1234 15.504 93.6674 16.44V24H90.3074Z" fill="white" style="fill:white;fill-opacity:1;"/>
<path d="M120.485 24.36C119.309 24.36 118.565 23.88 118.181 22.992C117.605 23.688 116.333 24.36 114.797 24.36C112.397 24.36 110.789 22.968 110.789 20.952C110.789 18.96 112.229 17.64 114.701 17.208L117.869 16.656C117.821 15.504 116.909 14.736 115.301 14.736C113.405 14.736 112.109 15.384 111.101 16.68C111.101 13.392 113.093 11.808 116.237 11.808C119.357 11.808 121.205 13.464 121.205 16.632V20.376C121.205 21.096 121.541 21.552 122.285 21.552C122.717 21.552 123.053 21.432 123.341 21.12C123.341 23.328 122.069 24.36 120.485 24.36ZM114.293 20.544C114.293 21.24 114.869 21.792 115.853 21.792C116.765 21.792 117.461 21.408 117.869 20.736V18.576L115.877 18.96C114.677 19.2 114.293 19.848 114.293 20.544Z" fill="white" style="fill:white;fill-opacity:1;"/>
<path d="M128.924 24.36C126.356 24.36 124.916 22.848 124.916 20.28V15.096H122.54L128.252 8.76002V12.168H132.884V15.096H128.252V18.984C128.252 20.448 129.092 21.24 130.46 21.24C131.612 21.24 132.524 20.808 133.052 20.064C133.052 22.848 131.54 24.36 128.924 24.36Z" fill="white" style="fill:white;fill-opacity:1;"/>
<path d="M134.735 24V12.168H138.095V24H134.735ZM134.399 8.59202C134.399 7.48802 135.263 6.62402 136.415 6.62402C137.567 6.62402 138.431 7.48802 138.431 8.59202C138.431 9.74402 137.567 10.56 136.415 10.56C135.263 10.56 134.399 9.74402 134.399 8.59202Z" fill="white" style="fill:white;fill-opacity:1;"/>
<path d="M146.14 24.36C142.708 24.36 140.284 22.032 140.284 18.216C140.284 14.496 142.876 11.808 146.644 11.808C148.372 11.808 149.692 12.216 150.628 13.008V16.536C149.98 15.6 148.78 14.904 147.196 14.904C145.156 14.904 143.836 16.056 143.836 17.976C143.836 19.824 145.156 21.12 147.508 21.12C148.972 21.12 150.196 20.544 150.892 19.512C150.892 22.848 149.164 24.36 146.14 24.36Z" fill="white" style="fill:white;fill-opacity:1;"/>
<path d="M23.2905 14.2883C22.894 14.6887 22.5904 15.1719 22.4012 15.7034C22.212 16.2351 22.142 16.802 22.1961 17.3638L22.1773 17.3449C22.2329 18.0063 22.144 18.6718 21.9169 19.2952C21.6897 19.9185 21.3298 20.4846 20.8622 20.954C20.3945 21.4232 19.8305 21.7845 19.2093 22.0124C18.5883 22.2403 17.925 22.3296 17.2661 22.2737L17.2849 22.2926C16.4967 22.219 15.705 22.3911 15.0177 22.7856C14.3305 23.1801 13.7812 23.7777 13.4448 24.4969C13.1084 25.2162 13.0012 26.022 13.1378 26.8047C13.2746 27.5873 13.6484 28.3085 14.2085 28.8701C14.7685 29.4316 15.4875 29.8062 16.2674 29.9426C17.0474 30.0791 17.8502 29.9707 18.5666 29.6325C19.283 29.2942 19.8779 28.7425 20.2704 28.0524C20.6628 27.3623 20.8337 26.5677 20.7596 25.7766L20.7795 25.7955C20.7238 25.1342 20.8126 24.4686 21.0398 23.8452C21.2669 23.2219 21.627 22.6558 22.0945 22.1865C22.5622 21.7172 23.1263 21.3559 23.7473 21.1281C24.3685 20.9001 25.0316 20.8108 25.6907 20.8667L25.6708 20.8478C26.3147 20.9059 26.9628 20.7999 27.5551 20.5397C28.1473 20.2795 28.6646 19.8735 29.0588 19.3593C29.4531 18.8451 29.7117 18.2392 29.8105 17.5981C29.9093 16.9568 29.8453 16.301 29.6243 15.6912C29.4034 15.0814 29.0326 14.5375 28.5464 14.1098C28.0602 13.6821 27.4742 13.3846 26.8429 13.2447C26.2116 13.1048 25.5553 13.1271 24.9348 13.3095C24.3144 13.492 23.7499 13.8286 23.2937 14.2883H23.2905Z" fill="white" style="fill:white;fill-opacity:1;"/>
<path d="M15.572 19.8168L15.5521 19.7979C16.1122 19.8545 16.6778 19.7855 17.2082 19.5958C17.7384 19.4062 18.2201 19.1008 18.6183 18.7014C19.0164 18.3021 19.3213 17.8189 19.5106 17.2869C19.7 16.7548 19.7691 16.1873 19.7132 15.6251L19.733 15.644C19.6774 14.9826 19.7663 14.3171 19.9933 13.6937C20.2205 13.0704 20.5805 12.5043 21.0481 12.035C21.5158 11.5657 22.0798 11.2044 22.7009 10.9765C23.3221 10.7485 23.9852 10.6594 24.6442 10.7152L24.6244 10.6963C25.4127 10.7706 26.2046 10.599 26.8922 10.205C27.58 9.81096 28.1297 9.21363 28.4666 8.4945C28.8035 7.77539 28.9111 6.96946 28.7749 6.18666C28.6387 5.40386 28.2652 4.68231 27.7052 4.1204C27.1453 3.5585 26.4263 3.1836 25.6463 3.04687C24.8664 2.91013 24.0633 3.01818 23.3468 3.35631C22.6302 3.69443 22.035 4.24616 21.6424 4.93625C21.2497 5.62632 21.0787 6.42115 21.1528 7.21232L21.134 7.19237C21.1898 7.85377 21.101 8.51942 20.874 9.14284C20.647 9.76626 20.2869 10.3324 19.8194 10.8018C19.3517 11.2711 18.7875 11.6324 18.1664 11.8602C17.5451 12.0881 16.8818 12.1771 16.2228 12.1212L16.2416 12.1411C15.6816 12.0845 15.1158 12.1535 14.5856 12.3431C14.0553 12.5327 13.5736 12.8382 13.1754 13.2376C12.7772 13.6369 12.4724 14.1201 12.2831 14.6521C12.0938 15.1842 12.0246 15.7517 12.0806 16.3139L12.0618 16.295C12.1172 16.9563 12.0282 17.6218 11.801 18.2451C11.5738 18.8683 11.2139 19.4344 10.7463 19.9036C10.2787 20.3729 9.7147 20.7341 9.09368 20.9621C8.47265 21.1901 7.80954 21.2795 7.15059 21.2238L7.16942 21.2427C6.38107 21.1684 5.58908 21.3399 4.90146 21.734C4.21385 22.1281 3.66409 22.7253 3.32718 23.4445C2.99026 24.1636 2.88258 24.9695 3.01883 25.7523C3.15509 26.5351 3.52865 27.2567 4.08854 27.8186C4.64844 28.3805 5.36742 28.7554 6.14742 28.8921C6.92743 29.0288 7.73047 28.9208 8.44703 28.5827C9.16358 28.2446 9.75877 27.6929 10.1514 27.0028C10.5441 26.3126 10.715 25.5179 10.6409 24.7267L10.6608 24.7456C10.6052 24.0842 10.6941 23.4187 10.9212 22.7953C11.1483 22.172 11.5083 21.6059 11.9759 21.1365C12.4436 20.6673 13.0076 20.306 13.6287 20.0781C14.2498 19.8502 14.913 19.7609 15.572 19.8168Z" fill="white" style="fill:white;fill-opacity:1;"/>
<path d="M8.56001 17.7093C8.95657 17.3091 9.26018 16.8258 9.44917 16.2942C9.63817 15.7626 9.7079 15.1956 9.65336 14.6338L9.67323 14.6527C9.61757 13.9912 9.70646 13.3254 9.93372 12.7019C10.161 12.0784 10.5211 11.5122 10.989 11.0429C11.4569 10.5735 12.0212 10.2123 12.6426 9.98452C13.2639 9.7567 13.9274 9.66777 14.5865 9.72392L14.5667 9.70502C15.3547 9.77912 16.1464 9.60745 16.8337 9.21344C17.521 8.81944 18.0704 8.22227 18.4072 7.50337C18.7439 6.78446 18.8514 5.97883 18.7152 5.19633C18.579 4.41382 18.2055 3.69254 17.6458 3.13084C17.0862 2.56914 16.3674 2.19437 15.5877 2.05764C14.808 1.92089 14.0052 2.02886 13.2889 2.36677C12.5726 2.70469 11.9775 3.25613 11.585 3.94589C11.1923 4.63565 11.0213 5.43016 11.0951 6.22105L11.0763 6.20215C11.132 6.86351 11.043 7.52908 10.8159 8.15242C10.5887 8.77575 10.2288 9.34183 9.76119 9.81115C9.29356 10.2805 8.7295 10.6417 8.10839 10.8696C7.48728 11.0976 6.82409 11.1868 6.1651 11.1309L6.18393 11.1498C5.54002 11.0919 4.89195 11.198 4.29979 11.4583C3.70762 11.7186 3.1905 12.1248 2.79636 12.6391C2.40222 13.1533 2.14381 13.7592 2.04506 14.4003C1.94633 15.0415 2.01045 15.6974 2.2315 16.307C2.45254 16.9168 2.82337 17.4606 3.30961 17.8881C3.79584 18.3158 4.38175 18.6133 5.01305 18.7532C5.64434 18.8929 6.30059 18.8705 6.921 18.6882C7.54139 18.5057 8.10586 18.169 8.56209 17.7093H8.56001Z" fill="white" style="fill:white;fill-opacity:1;"/>
</svg>
