<svg width="165" height="48" viewBox="0 0 165 48" fill="none" xmlns="http://www.w3.org/2000/svg">
<path d="M65.0761 37.86C63.2041 37.86 61.4761 37.536 59.8921 36.888C58.3081 36.216 56.9281 35.28 55.7521 34.08C54.6001 32.88 53.7001 31.464 53.0521 29.832C52.4041 28.176 52.0801 26.376 52.0801 24.432C52.0801 22.488 52.3921 20.712 53.0161 19.104C53.6641 17.496 54.5641 16.104 55.7161 14.928C56.8921 13.728 58.2721 12.816 59.8561 12.192C61.4401 11.544 63.1801 11.22 65.0761 11.22C67.2121 11.22 69.1321 11.64 70.8361 12.48C72.5641 13.296 73.9681 14.46 75.0481 15.972C76.1521 17.46 76.8241 19.212 77.0641 21.228H71.6641C71.3521 19.38 70.5961 17.988 69.3961 17.052C68.1961 16.092 66.7681 15.612 65.1121 15.612C63.6481 15.612 62.3521 15.96 61.2241 16.656C60.1201 17.352 59.2561 18.36 58.6321 19.68C58.0081 20.976 57.6961 22.548 57.6961 24.396C57.6961 26.268 58.0081 27.888 58.6321 29.256C59.2801 30.6 60.1681 31.644 61.2961 32.388C62.4241 33.108 63.7201 33.468 65.1841 33.468C66.7441 33.468 68.1241 33 69.3241 32.064C70.5241 31.128 71.3041 29.736 71.6641 27.888H77.1361C76.8241 29.904 76.1161 31.668 75.0121 33.18C73.9081 34.668 72.5041 35.82 70.8001 36.636C69.0961 37.452 67.1881 37.86 65.0761 37.86Z" fill="white" style="fill:white;fill-opacity:1;"/>
<path d="M79.0801 37.5V19.14H84.3721V23.46H84.4801V37.5H79.0801ZM84.4801 27.924L84.0121 23.568C84.4441 22.008 85.1521 20.82 86.1361 20.004C87.1201 19.188 88.3441 18.78 89.8081 18.78C90.2641 18.78 90.6001 18.828 90.8161 18.924V23.964C90.6961 23.916 90.5281 23.892 90.3121 23.892C90.0961 23.868 89.8321 23.856 89.5201 23.856C87.7921 23.856 86.5201 24.168 85.7041 24.792C84.8881 25.392 84.4801 26.436 84.4801 27.924Z" fill="white" style="fill:white;fill-opacity:1;"/>
<path d="M100.775 37.86C98.7586 37.86 96.9826 37.464 95.4466 36.672C93.9346 35.856 92.7466 34.728 91.8826 33.288C91.0426 31.824 90.6226 30.144 90.6226 28.248C90.6226 26.352 91.0426 24.696 91.8826 23.28C92.7466 21.864 93.9346 20.76 95.4466 19.968C96.9826 19.176 98.7586 18.78 100.775 18.78C102.815 18.78 104.591 19.176 106.103 19.968C107.639 20.76 108.827 21.864 109.667 23.28C110.507 24.696 110.927 26.352 110.927 28.248C110.927 30.144 110.495 31.824 109.631 33.288C108.791 34.728 107.603 35.856 106.067 36.672C104.555 37.464 102.791 37.86 100.775 37.86ZM100.775 33.612C101.615 33.612 102.371 33.396 103.043 32.964C103.739 32.532 104.291 31.92 104.699 31.128C105.107 30.312 105.311 29.34 105.311 28.212C105.311 26.556 104.867 25.284 103.979 24.396C103.115 23.484 102.047 23.028 100.775 23.028C99.5026 23.028 98.4226 23.484 97.5346 24.396C96.6706 25.308 96.2386 26.58 96.2386 28.212C96.2386 29.34 96.4426 30.312 96.8506 31.128C97.2586 31.92 97.7986 32.532 98.4706 32.964C99.1666 33.396 99.9346 33.612 100.775 33.612Z" fill="white" style="fill:white;fill-opacity:1;"/>
<path d="M112.709 37.5V19.14H118.001V23.46H118.109V37.5H112.709ZM125.489 37.5V26.124C125.489 25.116 125.225 24.36 124.697 23.856C124.193 23.352 123.449 23.1 122.465 23.1C121.625 23.1 120.869 23.292 120.197 23.676C119.549 24.06 119.033 24.588 118.649 25.26C118.289 25.932 118.109 26.724 118.109 27.636L117.641 23.208C118.241 21.864 119.117 20.796 120.269 20.004C121.445 19.188 122.885 18.78 124.589 18.78C126.629 18.78 128.189 19.356 129.269 20.508C130.349 21.636 130.889 23.16 130.889 25.08V37.5H125.489Z" fill="white" style="fill:white;fill-opacity:1;"/>
<path d="M133.707 37.5V19.14H139.107V37.5H133.707ZM133.527 16.692V10.86H139.287V16.692H133.527Z" fill="white" style="fill:white;fill-opacity:1;"/>
<path d="M154.054 37.5L148.618 29.436L140.806 19.14H146.854L151.714 26.376L160.102 37.5H154.054ZM149.05 26.088L153.91 19.14H159.814L151.606 29.868L149.05 26.088ZM151.138 30.156L145.918 37.5H140.05L148.582 26.376L151.138 30.156Z" fill="white" style="fill:white;fill-opacity:1;"/>
<path d="M21 6C11.0589 6 3 14.0589 3 24C12.9411 24 21 15.9411 21 6Z" fill="white" style="fill:white;fill-opacity:1;"/>
<path d="M21 6C30.9411 6 39 14.0589 39 24C29.0589 24 21 15.9411 21 6Z" fill="white" style="fill:white;fill-opacity:1;"/>
<path d="M21 42C11.0589 42 3 33.9411 3 24C12.9411 24 21 32.0589 21 42Z" fill="white" style="fill:white;fill-opacity:1;"/>
</svg>
