<svg width="21" height="20" viewBox="0 0 21 20" fill="none" xmlns="http://www.w3.org/2000/svg">
<path d="M18.6716 8.36788H18.0003V8.33329H10.5003V11.6666H15.2099C14.5228 13.607 12.6766 15 10.5003 15C7.73908 15 5.50033 12.7612 5.50033 9.99996C5.50033 7.23871 7.73908 4.99996 10.5003 4.99996C11.7749 4.99996 12.9345 5.48079 13.8174 6.26621L16.1745 3.90913C14.6862 2.52204 12.6953 1.66663 10.5003 1.66663C5.89824 1.66663 2.16699 5.39788 2.16699 9.99996C2.16699 14.602 5.89824 18.3333 10.5003 18.3333C15.1024 18.3333 18.8337 14.602 18.8337 9.99996C18.8337 9.44121 18.7762 8.89579 18.6716 8.36788Z" fill="#FFC107" style="fill:#FFC107;fill:color(display-p3 1.0000 0.7569 0.0275);fill-opacity:1;"/>
<path d="M15.8118 3.91835L13.8038 5.92639C12.9022 5.19322 11.7543 4.74996 10.5004 4.74996C8.40852 4.74996 6.60603 5.97412 5.76255 7.74334L3.45195 6.04881C4.83686 3.58332 7.47296 1.91663 10.5004 1.91663C12.5359 1.91663 14.3904 2.67488 15.8118 3.91835Z" fill="#FF3D00" stroke="#2E0F17" style="fill:#FF3D00;fill:color(display-p3 1.0000 0.2392 0.0000);fill-opacity:1;stroke:#2E0F17;stroke:color(display-p3 0.1794 0.0598 0.0891);stroke-opacity:1;" stroke-width="0.5"/>
<path d="M15.7036 16.1732L13.4963 14.3054C12.6198 14.92 11.5736 15.2509 10.4998 15.25L15.7036 16.1732ZM15.7036 16.1732C14.2965 17.3616 12.4843 18.0834 10.4998 18.0834C7.43286 18.0834 4.76999 16.3714 3.40035 13.8525L15.7036 16.1732Z" fill="#4CAF50" stroke="#2E0F17" style="fill:#4CAF50;fill:color(display-p3 0.2980 0.6863 0.3137);fill-opacity:1;stroke:#2E0F17;stroke:color(display-p3 0.1794 0.0598 0.0891);stroke-opacity:1;" stroke-width="0.5"/>
<path d="M18.6713 8.36796H18V8.33337H10.5V11.6667H15.2096C14.8809 12.5902 14.2889 13.3972 13.5067 13.988L13.5079 13.9871L16.0871 16.1696C15.9046 16.3355 18.8333 14.1667 18.8333 10C18.8333 9.44129 18.7758 8.89587 18.6713 8.36796Z" fill="#1976D2" style="fill:#1976D2;fill:color(display-p3 0.0980 0.4627 0.8235);fill-opacity:1;"/>
</svg>
