<svg width="103" height="32" viewBox="0 0 103 32" fill="none" xmlns="http://www.w3.org/2000/svg">
<path d="M36.252 24V6.23999H39.828V20.856H45.66V24H36.252Z" fill="white" style="fill:white;fill-opacity:1;"/>
<path d="M59.0208 10.824V24H56.0688V22.248C55.5168 23.28 54.3408 24.432 51.9648 24.408C47.6448 24.384 46.8288 21.096 46.8288 18.792V10.824H49.9728V18C49.9728 19.944 50.6208 21.48 52.8528 21.456C55.1088 21.456 55.8768 19.968 55.8768 18.096V10.824H59.0208Z" fill="white" style="fill:white;fill-opacity:1;"/>
<path d="M61.6546 24V10.824H64.6066V12.48C64.8946 11.88 66.1666 10.416 68.4466 10.416C69.5266 10.416 70.7266 10.728 71.6866 11.76C71.9746 12.072 72.3106 12.624 72.4786 12.96C72.7186 12.552 73.0066 12.12 73.4386 11.712C74.2546 10.944 75.4066 10.416 76.7986 10.416C77.9026 10.416 79.2946 10.704 80.3026 11.736C81.5026 12.984 81.7426 14.064 81.7426 16.776V24H78.5986V16.896C78.5986 16.056 78.5266 15.144 78.0706 14.448C77.7346 13.8 77.1106 13.368 76.0066 13.368C74.9026 13.368 74.1346 13.848 73.7266 14.568C73.3186 15.288 73.2706 15.984 73.2706 16.776V24H70.1266V16.776C70.1266 16.008 70.0546 15.264 69.7186 14.592C69.3346 13.896 68.6866 13.392 67.5586 13.368C66.4066 13.368 65.6866 13.92 65.3026 14.592C64.9186 15.288 64.7986 16.104 64.7986 16.872V24H61.6546Z" fill="white" style="fill:white;fill-opacity:1;"/>
<path d="M97.2435 18.456H86.6355C86.7795 20.568 88.6515 21.744 90.4515 21.72C91.9875 21.72 93.0195 21.024 93.6195 19.944H96.8595C96.2355 21.408 95.2995 22.512 94.1955 23.256C93.0915 24.024 91.7955 24.408 90.4275 24.408C86.3715 24.408 83.4675 21.12 83.4675 17.448C83.4675 13.704 86.3955 10.416 90.3795 10.416C92.3475 10.416 94.0755 11.16 95.2995 12.432C96.9075 14.088 97.5075 16.152 97.2435 18.456ZM86.6835 16.056H94.1475C94.0275 14.808 92.7075 13.056 90.4035 13.08C88.0755 13.08 86.8035 14.76 86.6835 16.056Z" fill="white" style="fill:white;fill-opacity:1;"/>
<path d="M2.5 28H26.5V4H2.5V28ZM21.8806 13.6908H16.8092V8.61942H21.8806V13.6908ZM7.11848 8.61942H12.1926V18.3092H21.8806V23.3806H7.11848V8.61942Z" fill="white" style="fill:white;fill-opacity:1;"/>
</svg>
