<svg width="93" height="32" viewBox="0 0 93 32" fill="none" xmlns="http://www.w3.org/2000/svg">
<path d="M46.6379 25.286C42.1659 25.286 39.2279 22.686 39.2019 19.15H42.5299C42.5299 20.918 44.0639 22.166 46.6639 22.166C48.7959 22.166 50.5639 21.464 50.5639 19.696C50.5639 18.578 49.7319 17.798 48.4059 17.564C47.7039 17.46 45.0259 17.226 44.3499 17.122C41.3599 16.654 39.6439 14.782 39.6439 12.052C39.6439 8.77604 42.7899 6.51404 46.6379 6.51404C51.0579 6.51404 53.5019 9.32204 53.6059 12.234H50.2519C50.1739 10.57 48.6139 9.60804 46.6119 9.60804C44.7139 9.60804 43.0239 10.336 43.0239 11.974C43.0239 13.092 43.6739 13.664 44.8959 13.872C45.6759 14.002 48.1459 14.21 48.9259 14.314C51.8379 14.73 53.9699 16.576 53.9699 19.566C53.9699 23.362 50.6939 25.286 46.6379 25.286Z" fill="white" style="fill:white;fill-opacity:1;"/>
<path d="M55.6538 30.2V27.288H57.1878C58.7998 27.288 59.2418 26.768 59.4758 26.118L59.8138 25.078L54.7438 12H57.9678L61.2698 20.814L64.2598 12H67.5358L62.3618 27.132C61.6858 29.238 60.5678 30.2 57.8898 30.2H55.6538Z" fill="white" style="fill:white;fill-opacity:1;"/>
<path d="M68.7517 25V12H71.8457V14.626C72.5737 12.832 73.8477 11.74 76.0317 11.74V14.834C73.6397 14.834 71.8977 16.29 71.8457 19.696V25H68.7517Z" fill="white" style="fill:white;fill-opacity:1;"/>
<path d="M81.1895 25.26C78.8235 25.26 76.9775 23.856 76.9775 21.282C76.9775 18.656 79.2915 17.044 83.0095 17.044H85.7135C85.7135 15.068 85.1155 14.288 83.1135 14.288C81.3975 14.288 80.8255 15.38 80.7475 16.134L77.6535 16.108C77.7575 13.924 79.5515 11.714 83.0615 11.714C86.8575 11.714 88.8335 13.768 88.8335 17.044V25H85.9475L85.7135 23.31C84.7255 24.558 83.3475 25.26 81.1895 25.26ZM81.8655 22.738C83.5555 22.738 85.7135 21.672 85.7135 19.592V19.254H83.1135C81.0335 19.254 80.0715 19.93 80.0715 21.204C80.0715 22.166 80.7735 22.738 81.8655 22.738Z" fill="white" style="fill:white;fill-opacity:1;"/>
<path fill-rule="evenodd" clip-rule="evenodd" d="M16.5 30C24.232 30 30.5 23.732 30.5 16C30.5 8.26802 24.232 2 16.5 2C8.768 2 2.5 8.26802 2.5 16C2.5 23.732 8.768 30 16.5 30ZM20.8675 8.52179C21.0801 7.76664 20.3473 7.32009 19.678 7.79691L10.3352 14.4527C9.60935 14.9698 9.72352 16 10.5067 16H12.9669V15.9809H17.7618L13.8548 17.3595L12.1325 23.4782C11.9199 24.2334 12.6527 24.6799 13.322 24.2031L22.6648 17.5473C23.3907 17.0302 23.2764 16 22.4933 16H18.7625L20.8675 8.52179Z" fill="white" style="fill:white;fill-opacity:1;"/>
</svg>
