<svg width="92" height="32" viewBox="0 0 92 32" fill="none" xmlns="http://www.w3.org/2000/svg">
<path d="M46.1379 25.286C41.6659 25.286 38.7279 22.686 38.7019 19.15H42.0299C42.0299 20.918 43.5639 22.166 46.1639 22.166C48.2959 22.166 50.0639 21.464 50.0639 19.696C50.0639 18.578 49.2319 17.798 47.9059 17.564C47.2039 17.46 44.5259 17.226 43.8499 17.122C40.8599 16.654 39.1439 14.782 39.1439 12.052C39.1439 8.77599 42.2899 6.51399 46.1379 6.51399C50.5579 6.51399 53.0019 9.32199 53.1059 12.234H49.7519C49.6739 10.57 48.1139 9.60799 46.1119 9.60799C44.2139 9.60799 42.5239 10.336 42.5239 11.974C42.5239 13.092 43.1739 13.664 44.3959 13.872C45.1759 14.002 47.6459 14.21 48.4259 14.314C51.3379 14.73 53.4699 16.576 53.4699 19.566C53.4699 23.362 50.1939 25.286 46.1379 25.286Z" fill="black" style="fill:black;fill-opacity:1;"/>
<path d="M55.1538 30.2V27.288H56.6878C58.2998 27.288 58.7418 26.768 58.9758 26.118L59.3138 25.078L54.2438 12H57.4678L60.7698 20.814L63.7598 12H67.0358L61.8618 27.132C61.1858 29.238 60.0678 30.2 57.3898 30.2H55.1538Z" fill="black" style="fill:black;fill-opacity:1;"/>
<path d="M68.2517 25V12H71.3457V14.626C72.0737 12.832 73.3477 11.74 75.5317 11.74V14.834C73.1397 14.834 71.3977 16.29 71.3457 19.696V25H68.2517Z" fill="black" style="fill:black;fill-opacity:1;"/>
<path d="M80.6895 25.26C78.3235 25.26 76.4775 23.856 76.4775 21.282C76.4775 18.656 78.7915 17.044 82.5095 17.044H85.2135C85.2135 15.068 84.6155 14.288 82.6135 14.288C80.8975 14.288 80.3255 15.38 80.2475 16.134L77.1535 16.108C77.2575 13.924 79.0515 11.714 82.5615 11.714C86.3575 11.714 88.3335 13.768 88.3335 17.044V25H85.4475L85.2135 23.31C84.2255 24.558 82.8475 25.26 80.6895 25.26ZM81.3655 22.738C83.0555 22.738 85.2135 21.672 85.2135 19.592V19.254H82.6135C80.5335 19.254 79.5715 19.93 79.5715 21.204C79.5715 22.166 80.2735 22.738 81.3655 22.738Z" fill="black" style="fill:black;fill-opacity:1;"/>
<path fill-rule="evenodd" clip-rule="evenodd" d="M16 30C23.732 30 30 23.732 30 16C30 8.26802 23.732 2 16 2C8.268 2 2 8.26802 2 16C2 23.732 8.268 30 16 30ZM20.3675 8.52179C20.5801 7.76664 19.8473 7.32009 19.178 7.79691L9.83518 14.4527C9.10935 14.9698 9.22352 16 10.0067 16H12.4669V15.9809H17.2618L13.3548 17.3595L11.6325 23.4782C11.4199 24.2334 12.1527 24.6799 12.822 24.2031L22.1648 17.5473C22.8907 17.0302 22.7764 16 21.9933 16H18.2625L20.3675 8.52179Z" fill="black" style="fill:black;fill-opacity:1;"/>
</svg>
