<svg width="88" height="32" viewBox="0 0 88 32" fill="none" xmlns="http://www.w3.org/2000/svg">
<g clip-path="url(#clip0_1411_1815)">
<path fill-rule="evenodd" clip-rule="evenodd" d="M17.8347 5.69141H4.65383C4.56099 5.69141 4.471 5.70438 4.38344 5.72724C4.36583 5.73193 4.3491 5.73919 4.33231 5.74648C4.31996 5.75185 4.30757 5.75723 4.29477 5.76161C4.28442 5.76551 4.27402 5.76932 4.26361 5.77313C4.22007 5.78906 4.17639 5.80505 4.13576 5.82829C4.11658 5.83934 4.09945 5.85261 4.0824 5.86583C4.07085 5.87478 4.05934 5.8837 4.04724 5.89189C4.04028 5.89682 4.03327 5.90172 4.02626 5.90662C3.98984 5.93209 3.95327 5.95766 3.92113 5.98869C3.90172 6.00779 3.88514 6.02938 3.86843 6.05113C3.86187 6.05968 3.85529 6.06825 3.84852 6.0767C3.83969 6.08705 3.8304 6.0971 3.82108 6.10717C3.80047 6.12945 3.77976 6.15185 3.76381 6.17789L0.159309 11.8138C0.151792 11.8261 0.146485 11.8393 0.14113 11.8527C0.136933 11.8632 0.132705 11.8737 0.12736 11.884C0.122871 11.892 0.117097 11.8995 0.111261 11.9071C0.103665 11.917 0.0959656 11.9271 0.0908681 11.9385C0.0860835 11.9492 0.0836081 11.9602 0.0811612 11.9711C0.0787738 11.9816 0.0764137 11.9921 0.0719626 12.0021C0.0528012 12.0532 0.0371327 12.1055 0.0250653 12.1588C0.0158382 12.2003 0.00879394 12.2423 0.00396149 12.2846C-0.00054701 12.3373 -0.00120825 12.3904 0.00198301 12.4432L0.00239498 12.4487C0.00554386 12.4902 0.00864251 12.531 0.0151729 12.5715C0.0242943 12.6215 0.0398294 12.6686 0.055721 12.7167L0.0574537 12.722C0.0599699 12.7291 0.0624424 12.7363 0.0649104 12.7434C0.0771054 12.7787 0.0891915 12.8136 0.10589 12.847C0.109241 12.854 0.111627 12.8616 0.114029 12.8692C0.116354 12.8765 0.118693 12.8839 0.121938 12.891C0.134274 12.9139 0.150447 12.9336 0.166631 12.9533C0.175249 12.9638 0.183871 12.9743 0.191917 12.9853C0.199226 12.9962 0.205398 13.0073 0.211497 13.0183C0.220807 13.035 0.229947 13.0514 0.242698 13.0663L11.1372 25.9343C11.3251 26.156 11.6067 26.3136 11.8875 26.3056C11.8894 26.3056 11.8913 26.3061 11.8931 26.3066C11.8945 26.307 11.8959 26.3073 11.8969 26.3073C11.9126 26.3082 11.9275 26.3082 11.9434 26.3082H11.9456C12.0397 26.3082 12.1321 26.2906 12.221 26.2669C12.2474 26.2585 12.2712 26.2502 12.2976 26.2401C12.3638 26.2166 12.4275 26.1865 12.4877 26.1503C12.4926 26.1474 12.4976 26.1445 12.5027 26.1416C12.5183 26.1325 12.5343 26.1233 12.5493 26.1133C12.621 26.0635 12.6883 26.0064 12.7464 25.9373L23.7528 13.0696C23.761 13.0599 23.7671 13.049 23.7732 13.0381C23.7776 13.0303 23.782 13.0224 23.7871 13.015C23.7937 13.0067 23.8009 12.9989 23.8081 12.9911C23.8202 12.9781 23.8324 12.9649 23.8417 12.9492C23.8514 12.934 23.8581 12.9176 23.8649 12.9011C23.8692 12.8907 23.8735 12.8802 23.8787 12.8698C23.8972 12.8358 23.9147 12.8014 23.9284 12.7645C23.9491 12.7108 23.9632 12.6564 23.9755 12.6019C23.977 12.5949 23.9786 12.5879 23.9801 12.5811C23.9866 12.5515 23.993 12.5227 23.9958 12.4928C24.0028 12.432 24.0002 12.3728 23.9958 12.3126C23.9947 12.299 23.9944 12.2858 23.994 12.2728C23.9934 12.2517 23.9928 12.2313 23.9896 12.2112C23.9777 12.1347 23.9535 12.0598 23.9239 11.9877C23.9207 11.9801 23.9191 11.9724 23.9174 11.9648C23.9157 11.9566 23.9139 11.9485 23.9103 11.9403C23.9093 11.9393 23.9084 11.9381 23.9077 11.9368C23.9077 11.9352 23.907 11.9344 23.9062 11.9334L23.9059 11.9331L22.6849 9.34033L14.8933 18.626L10.6239 18.9995L10.2503 14.7301L17.8347 5.69141Z" fill="black" style="fill:black;fill-opacity:1;"/>
</g>
<path d="M36.6467 24.7447L32 11.1362H35.3726L37.6959 18.9489L38.5204 22.0638H38.6203L39.4447 18.9745L41.7681 11.1362H45.1407L40.5189 24.7447H36.6467Z" fill="black" style="fill:black;fill-opacity:1;"/>
<path d="M46.776 24.7447V11.1617H49.8988V24.7447H46.776Z" fill="black" style="fill:black;fill-opacity:1;"/>
<path d="M58.3637 25C54.5913 25 52.4679 23.1872 52.4928 20.4809H55.5657C55.5906 22.1149 56.7898 22.8043 58.4386 22.8043C60.1374 22.8043 61.0368 22.166 61.0368 21.0681C61.0368 19.6894 60.1374 19.434 58.0639 19.1277C55.066 18.6936 52.8426 17.9787 52.8426 15.0936C52.8426 12.3617 55.091 10.9064 58.4386 10.9064C61.7862 10.9064 63.8598 12.4894 63.9097 15.1702H60.8619C60.8369 13.7915 59.8626 13.1021 58.3637 13.1021C56.7898 13.1021 55.9654 13.766 55.9654 14.7617C55.9654 15.9362 56.9147 16.3191 59.0132 16.6C61.7862 16.983 64.1845 17.5702 64.1845 20.7617C64.1845 23.6468 61.9611 25 58.3637 25Z" fill="black" style="fill:black;fill-opacity:1;"/>
<path d="M70.9766 24.7447C68.5033 24.7447 67.8288 23.5957 67.8288 21.6553V13.7404H65.3805V11.1617H67.8288V7.33192L70.9266 7V11.1617H73.7496V13.7404H70.9266V21.0681C70.9266 21.9362 71.2763 22.1404 72.0508 22.1404H73.7496V24.7447H70.9766Z" fill="black" style="fill:black;fill-opacity:1;"/>
<path d="M80.3055 24.9745C77.1077 24.9745 74.9593 22.5489 74.9593 17.9532C74.9593 13.3319 77.1077 10.9064 80.3055 10.9064C82.4539 10.9064 84.0528 12.0043 84.7023 13.6638H84.8772L85.0021 11.1617H88V24.7447H84.8772V22.217H84.7023C84.0528 23.8766 82.4539 24.9745 80.3055 24.9745ZM81.4796 22.3702C83.7031 22.3702 84.8273 20.5574 84.8273 18.6426V17.2383C84.8273 15.2979 83.7031 13.5106 81.4796 13.5106C79.4811 13.5106 78.132 14.966 78.132 17.9532C78.132 20.9149 79.4811 22.3702 81.4796 22.3702Z" fill="black" style="fill:black;fill-opacity:1;"/>
<defs>
<clipPath id="clip0_1411_1815">
<rect width="24" height="24" fill="white" style="fill:white;fill-opacity:1;" transform="translate(0 4)"/>
</clipPath>
</defs>
</svg>
