<svg width="400" height="400" viewBox="0 0 400 400" fill="none" xmlns="http://www.w3.org/2000/svg">
<g clip-path="url(#clip0_283_11733)">
<path fill-rule="evenodd" clip-rule="evenodd" d="M297.245 28.1948H77.5639C76.0165 28.1948 74.5167 28.411 73.0573 28.792C72.7639 28.8701 72.485 28.9912 72.2051 29.1128C71.9993 29.2022 71.7928 29.2918 71.5796 29.3648C71.407 29.4299 71.2336 29.4933 71.0601 29.5568C70.3345 29.8224 69.6065 30.0889 68.9294 30.4762C68.6096 30.6604 68.3242 30.8816 68.04 31.1019C67.8476 31.251 67.6557 31.3997 67.4541 31.5363C67.3379 31.6185 67.2212 31.7001 67.1043 31.7818C66.4973 32.2062 65.8878 32.6324 65.3522 33.1496C65.0286 33.4679 64.7523 33.8278 64.4739 34.1903C64.3645 34.3327 64.2549 34.4755 64.1419 34.6163C63.9949 34.7889 63.84 34.9563 63.6847 35.1242C63.3412 35.4956 62.996 35.8689 62.7301 36.3029L2.65515 130.234C2.52986 130.44 2.44142 130.661 2.35217 130.883C2.28221 131.058 2.21176 131.234 2.12267 131.404C2.04786 131.538 1.95161 131.663 1.85436 131.79C1.72775 131.955 1.59943 132.122 1.51447 132.313C1.43473 132.492 1.39347 132.675 1.35269 132.856C1.3129 133.032 1.27356 133.207 1.19938 133.373C0.880021 134.225 0.618879 135.097 0.417755 135.984C0.26397 136.677 0.146566 137.376 0.0660248 138.081C-0.00911683 138.961 -0.0201375 139.844 0.0330501 140.725L0.0399163 140.816C0.0923976 141.508 0.144042 142.188 0.252881 142.862C0.404909 143.697 0.663835 144.481 0.928701 145.284L0.957562 145.371C0.999495 145.49 1.0407 145.609 1.08183 145.728C1.28509 146.316 1.48652 146.899 1.76483 147.454C1.82068 147.572 1.86045 147.698 1.90047 147.824C1.93923 147.947 1.97822 148.07 2.03229 148.187C2.23789 148.57 2.50744 148.898 2.77717 149.227C2.92081 149.402 3.06451 149.577 3.19862 149.76C3.32043 149.942 3.4233 150.126 3.52495 150.309C3.68012 150.588 3.83245 150.862 4.04497 151.11L185.621 365.576C188.752 369.271 193.445 371.897 198.124 371.764C198.156 371.764 198.189 371.773 198.218 371.781C198.242 371.788 198.264 371.793 198.282 371.793C198.543 371.808 198.792 371.808 199.056 371.808H199.093C200.662 371.808 202.202 371.515 203.683 371.119C204.123 370.98 204.52 370.841 204.96 370.672C206.063 370.281 207.125 369.78 208.128 369.176C208.21 369.128 208.294 369.08 208.378 369.031C208.639 368.88 208.905 368.727 209.155 368.56C210.35 367.73 211.472 366.778 212.44 365.627L395.881 151.165C396.016 151.003 396.118 150.822 396.219 150.64C396.293 150.509 396.366 150.378 396.452 150.255C396.562 150.117 396.682 149.987 396.802 149.857C397.004 149.639 397.206 149.42 397.362 149.158C397.524 148.905 397.636 148.632 397.749 148.357C397.82 148.183 397.892 148.007 397.978 147.836C398.287 147.268 398.578 146.695 398.807 146.079C399.151 145.185 399.387 144.278 399.592 143.369C399.617 143.253 399.643 143.137 399.668 143.022C399.777 142.53 399.883 142.05 399.929 141.551C400.046 140.538 400.003 139.552 399.929 138.548C399.912 138.321 399.906 138.101 399.9 137.884C399.89 137.533 399.88 137.193 399.827 136.857C399.629 135.582 399.225 134.334 398.732 133.132C398.679 133.006 398.652 132.879 398.624 132.751C398.595 132.615 398.566 132.479 398.505 132.344C398.488 132.326 398.474 132.306 398.461 132.285C398.461 132.259 398.449 132.244 398.436 132.228L398.432 132.223L378.081 89.0102L248.221 243.771L177.064 249.996L170.839 178.84L297.245 28.1948Z" fill="#0A0A1F" style="fill:#0A0A1F;fill:color(display-p3 0.0402 0.0402 0.1206);fill-opacity:1;"/>
</g>
<defs>
<clipPath id="clip0_283_11733">
<rect width="400" height="400" fill="white" style="fill:white;fill-opacity:1;"/>
</clipPath>
</defs>
</svg>
