<svg width="88" height="24" viewBox="0 0 88 24" fill="none" xmlns="http://www.w3.org/2000/svg">
<g clip-path="url(#clip0_1411_2215)">
<path fill-rule="evenodd" clip-rule="evenodd" d="M17.8347 1.69141H4.65383C4.56099 1.69141 4.471 1.70438 4.38344 1.72724C4.36583 1.73193 4.3491 1.73919 4.33231 1.74648C4.31996 1.75185 4.30757 1.75723 4.29477 1.76161C4.28442 1.76551 4.27402 1.76932 4.26361 1.77313C4.22007 1.78906 4.17639 1.80505 4.13576 1.82829C4.11658 1.83934 4.09945 1.85261 4.0824 1.86583C4.07085 1.87478 4.05934 1.8837 4.04724 1.89189C4.04028 1.89682 4.03327 1.90172 4.02626 1.90662C3.98984 1.93209 3.95327 1.95766 3.92113 1.98869C3.90172 2.00779 3.88514 2.02938 3.86843 2.05113C3.86187 2.05968 3.85529 2.06825 3.84852 2.0767C3.83969 2.08705 3.8304 2.0971 3.82108 2.10717C3.80047 2.12945 3.77976 2.15185 3.76381 2.17789L0.159309 7.81378C0.151792 7.8261 0.146485 7.83935 0.14113 7.85271C0.136933 7.86319 0.132705 7.87374 0.12736 7.88398C0.122871 7.892 0.117097 7.89952 0.111261 7.90713C0.103665 7.91703 0.0959656 7.92706 0.0908681 7.9385C0.0860835 7.94921 0.0836081 7.9602 0.0811612 7.97105C0.0787738 7.98164 0.0764137 7.99211 0.0719626 8.0021C0.0528012 8.0532 0.0371327 8.10554 0.0250653 8.15877C0.0158382 8.20031 0.00879394 8.24231 0.00396149 8.28458C-0.00054701 8.33735 -0.00120825 8.39037 0.00198301 8.44323L0.00239498 8.44866C0.00554386 8.49017 0.00864251 8.53102 0.0151729 8.57146C0.0242943 8.62153 0.0398294 8.66859 0.055721 8.71672L0.0574537 8.72197C0.0599699 8.72913 0.0624424 8.73628 0.0649104 8.74342C0.0771054 8.77869 0.0891915 8.81365 0.10589 8.84699C0.109241 8.85402 0.111627 8.86157 0.114029 8.86917C0.116354 8.87652 0.118693 8.88392 0.121938 8.89095C0.134274 8.9139 0.150447 8.93361 0.166631 8.95333C0.175249 8.96383 0.183871 8.97433 0.191917 8.98533C0.199226 8.99621 0.205398 9.0073 0.211497 9.01827C0.220807 9.035 0.229947 9.05143 0.242698 9.0663L11.1372 21.9343C11.3251 22.156 11.6067 22.3136 11.8875 22.3056C11.8894 22.3056 11.8913 22.3061 11.8931 22.3066C11.8945 22.307 11.8959 22.3073 11.8969 22.3073C11.9126 22.3082 11.9275 22.3082 11.9434 22.3082H11.9456C12.0397 22.3082 12.1321 22.2906 12.221 22.2669C12.2474 22.2585 12.2712 22.2502 12.2976 22.2401C12.3638 22.2166 12.4275 22.1865 12.4877 22.1503C12.4926 22.1474 12.4976 22.1445 12.5027 22.1416C12.5183 22.1325 12.5343 22.1233 12.5493 22.1133C12.621 22.0635 12.6883 22.0064 12.7464 21.9373L23.7528 9.0696C23.761 9.0599 23.7671 9.04901 23.7732 9.03813C23.7776 9.03027 23.782 9.02241 23.7871 9.01501C23.7937 9.00671 23.8009 8.99893 23.8081 8.99113C23.8202 8.97807 23.8324 8.96494 23.8417 8.94921C23.8514 8.934 23.8581 8.91764 23.8649 8.90114C23.8692 8.89068 23.8735 8.88017 23.8787 8.86985C23.8972 8.83577 23.9147 8.80141 23.9284 8.76448C23.9491 8.71084 23.9632 8.65639 23.9755 8.60187C23.977 8.59488 23.9786 8.58795 23.9801 8.58106C23.9866 8.55151 23.993 8.52271 23.9958 8.49276C24.0028 8.43202 24.0002 8.37281 23.9958 8.31258C23.9947 8.299 23.9944 8.28576 23.994 8.27278C23.9934 8.25171 23.9928 8.23129 23.9896 8.21116C23.9777 8.13466 23.9535 8.05977 23.9239 7.98767C23.9207 7.98008 23.9191 7.97243 23.9174 7.96476C23.9157 7.95663 23.9139 7.94847 23.9103 7.94033C23.9093 7.93927 23.9084 7.93809 23.9077 7.93681C23.9077 7.93523 23.907 7.93436 23.9062 7.9334L23.9059 7.93307L22.6849 5.34033L14.8933 14.626L10.6239 14.9995L10.2503 10.7301L17.8347 1.69141Z" fill="white" style="fill:white;fill-opacity:1;"/>
</g>
<path d="M36.6467 20.7447L32 7.13617H35.3726L37.6959 14.9489L38.5204 18.0638H38.6203L39.4447 14.9745L41.7681 7.13617H45.1407L40.5189 20.7447H36.6467Z" fill="white" style="fill:white;fill-opacity:1;"/>
<path d="M46.776 20.7447V7.1617H49.8988V20.7447H46.776Z" fill="white" style="fill:white;fill-opacity:1;"/>
<path d="M58.3637 21C54.5913 21 52.4679 19.1872 52.4928 16.4809H55.5657C55.5906 18.1149 56.7898 18.8043 58.4386 18.8043C60.1374 18.8043 61.0368 18.166 61.0368 17.0681C61.0368 15.6894 60.1374 15.434 58.0639 15.1277C55.066 14.6936 52.8426 13.9787 52.8426 11.0936C52.8426 8.3617 55.091 6.90638 58.4386 6.90638C61.7862 6.90638 63.8598 8.48936 63.9097 11.1702H60.8619C60.8369 9.79149 59.8626 9.10213 58.3637 9.10213C56.7898 9.10213 55.9654 9.76596 55.9654 10.7617C55.9654 11.9362 56.9147 12.3191 59.0132 12.6C61.7862 12.983 64.1845 13.5702 64.1845 16.7617C64.1845 19.6468 61.9611 21 58.3637 21Z" fill="white" style="fill:white;fill-opacity:1;"/>
<path d="M70.9766 20.7447C68.5033 20.7447 67.8288 19.5957 67.8288 17.6553V9.74043H65.3805V7.1617H67.8288V3.33192L70.9266 3V7.1617H73.7496V9.74043H70.9266V17.0681C70.9266 17.9362 71.2763 18.1404 72.0508 18.1404H73.7496V20.7447H70.9766Z" fill="white" style="fill:white;fill-opacity:1;"/>
<path d="M80.3055 20.9745C77.1077 20.9745 74.9593 18.5489 74.9593 13.9532C74.9593 9.33192 77.1077 6.90638 80.3055 6.90638C82.4539 6.90638 84.0528 8.00426 84.7023 9.66383H84.8772L85.0021 7.1617H88V20.7447H84.8772V18.217H84.7023C84.0528 19.8766 82.4539 20.9745 80.3055 20.9745ZM81.4796 18.3702C83.7031 18.3702 84.8273 16.5574 84.8273 14.6426V13.2383C84.8273 11.2979 83.7031 9.51064 81.4796 9.51064C79.4811 9.51064 78.132 10.966 78.132 13.9532C78.132 16.9149 79.4811 18.3702 81.4796 18.3702Z" fill="white" style="fill:white;fill-opacity:1;"/>
<defs>
<clipPath id="clip0_1411_2215">
<rect width="24" height="24" fill="white" style="fill:white;fill-opacity:1;"/>
</clipPath>
</defs>
</svg>
