<svg width="64" height="64" viewBox="0 0 64 64" fill="none" xmlns="http://www.w3.org/2000/svg">
<g clip-path="url(#clip0_89_1794)">
<path fill-rule="evenodd" clip-rule="evenodd" d="M47.5592 4.51115H12.4102C12.1626 4.51115 11.9227 4.54574 11.6892 4.60671C11.6422 4.61921 11.5976 4.63858 11.5528 4.65803C11.5199 4.67233 11.4868 4.68668 11.4527 4.69835C11.4251 4.70876 11.3974 4.71892 11.3696 4.72908C11.2535 4.77157 11.137 4.8142 11.0287 4.87617C10.9775 4.90565 10.9319 4.94104 10.8864 4.97629C10.8556 5.00014 10.8249 5.02393 10.7926 5.04578C10.7741 5.05894 10.7554 5.072 10.7367 5.08508C10.6396 5.15298 10.5421 5.22117 10.4564 5.30391C10.4046 5.35485 10.3604 5.41243 10.3158 5.47043C10.2983 5.49321 10.2808 5.51606 10.2627 5.5386C10.2392 5.5662 10.2144 5.593 10.1896 5.61985C10.1346 5.67928 10.0794 5.739 10.0368 5.80845L0.424824 20.8375C0.404778 20.8703 0.390627 20.9057 0.376347 20.9413C0.365153 20.9692 0.35388 20.9974 0.339627 21.0247C0.327658 21.0461 0.312259 21.0661 0.296698 21.0864C0.27644 21.1128 0.255909 21.1396 0.242315 21.1701C0.229556 21.1986 0.222955 21.2279 0.21643 21.2569C0.210063 21.2851 0.20377 21.313 0.1919 21.3397C0.140803 21.4759 0.0990207 21.6155 0.0668408 21.7575C0.0422352 21.8682 0.0234505 21.9802 0.010564 22.093C-0.00145869 22.2337 -0.003222 22.3751 0.00528802 22.516L0.00638672 22.5305C0.0147837 22.6412 0.0230468 22.7501 0.040461 22.858C0.0647841 22.9915 0.106209 23.117 0.148586 23.2453L0.15321 23.2593C0.159919 23.2784 0.166513 23.2975 0.173094 23.3165C0.205614 23.4106 0.237844 23.5038 0.282373 23.5927C0.291308 23.6115 0.297671 23.6316 0.304076 23.6518C0.310276 23.6715 0.316516 23.6912 0.325167 23.7099C0.358063 23.7711 0.401192 23.8237 0.444349 23.8763C0.467332 23.9043 0.490322 23.9323 0.511779 23.9616C0.531269 23.9906 0.547728 24.0202 0.563992 24.0494C0.58882 24.0941 0.613192 24.1379 0.647195 24.1775L29.6993 58.4921C30.2003 59.0834 30.9513 59.5035 31.6999 59.4822C31.705 59.4822 31.7103 59.4837 31.715 59.4849C31.7188 59.486 31.7223 59.4869 31.7251 59.4869C31.7669 59.4893 31.8068 59.4893 31.849 59.4893H31.8548C32.1059 59.4893 32.3523 59.4424 32.5894 59.3791C32.6597 59.3568 32.7232 59.3345 32.7936 59.3076C32.9701 59.245 33.1399 59.1648 33.3004 59.0682C33.3136 59.0604 33.327 59.0527 33.3404 59.0449C33.3821 59.0209 33.4247 58.9962 33.4648 58.9695C33.6561 58.8368 33.8355 58.6844 33.9904 58.5003L63.3409 24.1863C63.3626 24.1605 63.3789 24.1314 63.3951 24.1024C63.4069 24.0814 63.4186 24.0605 63.4324 24.0408C63.4499 24.0186 63.4691 23.9979 63.4883 23.9771C63.5206 23.9423 63.553 23.9073 63.5779 23.8653C63.6038 23.8247 63.6217 23.7811 63.6398 23.7371C63.6513 23.7092 63.6628 23.6812 63.6764 23.6537C63.7259 23.5628 63.7726 23.4712 63.8091 23.3727C63.8642 23.2296 63.9019 23.0844 63.9347 22.9391C63.9387 22.9204 63.9428 22.9019 63.9469 22.8835C63.9643 22.8047 63.9812 22.728 63.9887 22.6481C64.0074 22.4861 64.0004 22.3282 63.9887 22.1676C63.986 22.1314 63.985 22.0961 63.984 22.0615C63.9824 22.0053 63.9809 21.9508 63.9723 21.8972C63.9406 21.6932 63.8759 21.4935 63.7972 21.3012C63.7886 21.281 63.7842 21.2606 63.7798 21.2401C63.7752 21.2184 63.7705 21.1967 63.7608 21.1749C63.7581 21.1721 63.7558 21.169 63.7538 21.1656C63.7538 21.1609 63.7515 21.1585 63.7491 21.1556L60.493 14.2416L39.7154 39.0033L28.3303 39.9994L27.3342 28.6143L47.5592 4.51115Z" fill="white" style="fill:white;fill-opacity:1;"/>
</g>
<defs>
<clipPath id="clip0_89_1794">
<rect width="64" height="64" fill="white" style="fill:white;fill-opacity:1;"/>
</clipPath>
</defs>
</svg>
